<svg xmlns="http://www.w3.org/2000/svg" width="192.154" height="44.234" viewBox="0 0 192.154 44.234">
  <g id="Grupo_132" data-name="Grupo 132" transform="translate(-863.923 -758.856)">
    <g id="Grupo_129" data-name="Grupo 129">
      <path id="Caminho_1100" data-name="Caminho 1100" d="M1035.561,764.294q-75.518,1.285-151.115,0a11.43,11.43,0,0,0-11.392,11.6h0c-.008,6.468,5.065,12.319,11.337,12.957a808.359,808.359,0,0,0,151.226,0c6.273-.638,11.343-6.489,11.337-12.957h0A11.43,11.43,0,0,0,1035.561,764.294Z" fill="#fefbe6"/>
      <g id="Grupo_127" data-name="Grupo 127">
        <path id="Caminho_1101" data-name="Caminho 1101" d="M1056.077,764.957a5.013,5.013,0,0,0-4.824-4.99,1.774,1.774,0,0,0-1.628-1.111h-.691a1.759,1.759,0,0,0-1.627,1.116l-3.817.016a1.769,1.769,0,0,0-1.629-1.132h-.691a1.76,1.76,0,0,0-1.626,1.147l-3.817.015a1.777,1.777,0,0,0-1.63-1.162h-.691a1.761,1.761,0,0,0-1.625,1.176l-3.817.012a1.779,1.779,0,0,0-1.631-1.188h-.691a1.765,1.765,0,0,0-1.625,1.2l-3.817.011a1.782,1.782,0,0,0-1.631-1.212h-.691a1.766,1.766,0,0,0-1.624,1.223l-3.818.01a1.786,1.786,0,0,0-1.631-1.233h-.691a1.771,1.771,0,0,0-1.624,1.243l-3.818.009a1.789,1.789,0,0,0-1.631-1.252h-.691a1.776,1.776,0,0,0-1.624,1.26l-3.818.007a1.791,1.791,0,0,0-1.631-1.267h-.691a1.78,1.78,0,0,0-1.625,1.273l-3.818.006a1.791,1.791,0,0,0-1.63-1.279h-.691a1.781,1.781,0,0,0-1.613,1.284l-3.83.005a1.792,1.792,0,0,0-1.618-1.289h-.691a1.787,1.787,0,0,0-1.626,1.292l-3.818,0A1.793,1.793,0,0,0,972,758.856h-.691a1.791,1.791,0,0,0-1.627,1.3l-3.817,0a1.8,1.8,0,0,0-1.629-1.3h-.691a1.792,1.792,0,0,0-1.627,1.3H958.1a1.791,1.791,0,0,0-1.628-1.3h-.691a1.794,1.794,0,0,0-1.628,1.3l-3.818,0a1.791,1.791,0,0,0-1.627-1.3h-.69a1.793,1.793,0,0,0-1.629,1.295l-3.818,0a1.789,1.789,0,0,0-1.626-1.292h-.691a1.793,1.793,0,0,0-1.63,1.289l-3.818-.005a1.784,1.784,0,0,0-1.625-1.284h-.691a1.792,1.792,0,0,0-1.63,1.279l-3.818-.006a1.78,1.78,0,0,0-1.625-1.273h-.691a1.79,1.79,0,0,0-1.631,1.267l-3.818-.007a1.775,1.775,0,0,0-1.624-1.26h-.691a1.785,1.785,0,0,0-1.619,1.252l-3.83-.009a1.77,1.77,0,0,0-1.612-1.243h-.691a1.784,1.784,0,0,0-1.631,1.233l-3.818-.01a1.768,1.768,0,0,0-1.624-1.223h-.691a1.781,1.781,0,0,0-1.631,1.212l-3.818-.011a1.764,1.764,0,0,0-1.624-1.2h-.691a1.778,1.778,0,0,0-1.631,1.188l-3.817-.012a1.763,1.763,0,0,0-1.625-1.176h-.691a1.773,1.773,0,0,0-1.63,1.162L880.467,760a1.759,1.759,0,0,0-1.625-1.147h-.691a1.772,1.772,0,0,0-1.63,1.132l-3.817-.016a1.757,1.757,0,0,0-1.626-1.116h-.691a1.775,1.775,0,0,0-1.64,1.111,5,5,0,0,0-4.824,4.99,5.341,5.341,0,0,0,4.746,5.233,1.883,1.883,0,0,0,1.706,1.424l.69.034a1.677,1.677,0,0,0,1.708-1.263l3.649.155a1.9,1.9,0,0,0,1.706,1.443l.69.031a1.7,1.7,0,0,0,1.71-1.308q1.825.072,3.65.141a1.9,1.9,0,0,0,1.705,1.472l.691.028A1.72,1.72,0,0,0,888.286,771q1.825.065,3.651.126a1.9,1.9,0,0,0,1.705,1.5l.691.026a1.74,1.74,0,0,0,1.713-1.388q1.825.059,3.653.113a1.892,1.892,0,0,0,1.705,1.518l.691.023a1.761,1.761,0,0,0,1.714-1.422q1.825.051,3.653.1a1.894,1.894,0,0,0,1.706,1.537l.691.019a1.776,1.776,0,0,0,1.7-1.453q1.833.043,3.666.085a1.89,1.89,0,0,0,1.695,1.551l.691.016a1.794,1.794,0,0,0,1.714-1.48q1.828.036,3.655.07a1.892,1.892,0,0,0,1.708,1.563l.691.013a1.81,1.81,0,0,0,1.714-1.5l3.656.056a1.887,1.887,0,0,0,1.708,1.57l.692.01a1.825,1.825,0,0,0,1.713-1.525q1.828.024,3.657.043a1.882,1.882,0,0,0,1.709,1.574l.691.007a1.841,1.841,0,0,0,1.714-1.542q1.827.017,3.656.029A1.878,1.878,0,0,0,948,773.8l.692,0a1.849,1.849,0,0,0,1.712-1.555q1.828.009,3.657.014a1.872,1.872,0,0,0,1.711,1.572h.692a1.86,1.86,0,0,0,1.711-1.565h3.657a1.861,1.861,0,0,0,1.712,1.565h.692a1.869,1.869,0,0,0,1.711-1.572q1.829,0,3.657-.014a1.847,1.847,0,0,0,1.712,1.555l.692,0a1.876,1.876,0,0,0,1.709-1.575q1.828-.012,3.657-.028a1.838,1.838,0,0,0,1.713,1.542l.692-.008a1.878,1.878,0,0,0,1.7-1.573q1.834-.02,3.668-.043a1.824,1.824,0,0,0,1.7,1.525l.692-.01a1.886,1.886,0,0,0,1.708-1.57l3.656-.056a1.81,1.81,0,0,0,1.714,1.5l.691-.013a1.889,1.889,0,0,0,1.707-1.563q1.828-.033,3.656-.07a1.8,1.8,0,0,0,1.714,1.48l.691-.016a1.891,1.891,0,0,0,1.707-1.551q1.827-.04,3.654-.085a1.777,1.777,0,0,0,1.714,1.453l.691-.019a1.893,1.893,0,0,0,1.706-1.537q1.827-.048,3.654-.1a1.758,1.758,0,0,0,1.714,1.422l.69-.022a1.894,1.894,0,0,0,1.706-1.519q1.827-.054,3.653-.112a1.738,1.738,0,0,0,1.713,1.387l.69-.025a1.893,1.893,0,0,0,1.7-1.5q1.827-.062,3.652-.127a1.72,1.72,0,0,0,1.712,1.35l.69-.028a1.894,1.894,0,0,0,1.7-1.473q1.826-.067,3.651-.14a1.7,1.7,0,0,0,1.71,1.308l.69-.031a1.894,1.894,0,0,0,1.7-1.444q1.826-.077,3.649-.155a1.679,1.679,0,0,0,1.709,1.263l.69-.034a1.878,1.878,0,0,0,1.694-1.423A5.332,5.332,0,0,0,1056.077,764.957Z" fill="#a67c52"/>
      </g>
      <g id="Grupo_128" data-name="Grupo 128">
        <path id="Caminho_1102" data-name="Caminho 1102" d="M1056.077,789.215a4.434,4.434,0,0,0-1.469-3.38,4.49,4.49,0,0,0-3.337-1.12,1.572,1.572,0,0,0-1.623-.952l-.688.067a1.979,1.979,0,0,0-1.621,1.271q-1.9.189-3.807.369a1.586,1.586,0,0,0-1.625-.986l-.69.061a1.965,1.965,0,0,0-1.621,1.289q-1.9.172-3.81.335a1.606,1.606,0,0,0-1.628-1.029l-.689.055a1.95,1.95,0,0,0-1.623,1.3q-1.906.154-3.813.3a1.624,1.624,0,0,0-1.629-1.07l-.69.049a1.931,1.931,0,0,0-1.624,1.315q-1.906.138-3.815.269a1.644,1.644,0,0,0-1.631-1.108l-.69.044a1.916,1.916,0,0,0-1.625,1.324q-1.908.12-3.818.234a1.665,1.665,0,0,0-1.631-1.142l-.691.038a1.9,1.9,0,0,0-1.625,1.33q-1.91.1-3.82.2a1.687,1.687,0,0,0-1.632-1.174l-.692.032a1.883,1.883,0,0,0-1.626,1.332q-1.911.089-3.822.168a1.707,1.707,0,0,0-1.632-1.2l-.692.026a1.87,1.87,0,0,0-1.627,1.333q-1.913.07-3.823.134a1.729,1.729,0,0,0-1.633-1.229l-.692.021a1.849,1.849,0,0,0-1.616,1.329q-1.918.054-3.836.1A1.744,1.744,0,0,0,979.8,787.9l-.692.014a1.835,1.835,0,0,0-1.629,1.324q-1.913.039-3.826.068a1.766,1.766,0,0,0-1.632-1.273l-.692.009a1.821,1.821,0,0,0-1.63,1.316q-1.912.021-3.825.033a1.785,1.785,0,0,0-1.632-1.289l-.692,0a1.8,1.8,0,0,0-1.631,1.3q-1.914,0-3.826,0a1.8,1.8,0,0,0-1.631-1.3l-.692,0a1.784,1.784,0,0,0-1.632,1.289q-1.913-.012-3.825-.033a1.821,1.821,0,0,0-1.63-1.316l-.693-.009a1.768,1.768,0,0,0-1.632,1.273q-1.912-.03-3.825-.067a1.834,1.834,0,0,0-1.629-1.324l-.692-.015a1.745,1.745,0,0,0-1.632,1.252q-1.913-.047-3.825-.1a1.851,1.851,0,0,0-1.628-1.33l-.692-.021a1.729,1.729,0,0,0-1.633,1.229q-1.911-.063-3.823-.134a1.87,1.87,0,0,0-1.627-1.333l-.692-.026a1.706,1.706,0,0,0-1.632,1.2q-1.911-.079-3.822-.168a1.884,1.884,0,0,0-1.626-1.332l-.692-.032a1.684,1.684,0,0,0-1.62,1.174q-1.915-.1-3.832-.2a1.9,1.9,0,0,0-1.613-1.33l-.691-.037a1.667,1.667,0,0,0-1.632,1.142q-1.91-.114-3.818-.235a1.915,1.915,0,0,0-1.624-1.324l-.691-.043a1.644,1.644,0,0,0-1.63,1.107q-1.908-.129-3.816-.268a1.93,1.93,0,0,0-1.623-1.315l-.69-.049a1.626,1.626,0,0,0-1.63,1.069q-1.907-.146-3.812-.3a1.949,1.949,0,0,0-1.623-1.3l-.69-.055a1.605,1.605,0,0,0-1.627,1.029q-1.905-.162-3.81-.335a1.966,1.966,0,0,0-1.622-1.289l-.689-.061a1.587,1.587,0,0,0-1.625.986q-1.9-.18-3.807-.369a1.985,1.985,0,0,0-1.621-1.271l-.689-.067a1.578,1.578,0,0,0-1.635.951,4.422,4.422,0,0,0-4.805,4.5,6.059,6.059,0,0,0,4.728,5.716,2.135,2.135,0,0,0,1.7,1.591l.688.1a1.494,1.494,0,0,0,1.7-1.1q1.82.252,3.639.493a2.125,2.125,0,0,0,1.7,1.6l.688.092a1.526,1.526,0,0,0,1.707-1.159q1.821.228,3.643.448a2.1,2.1,0,0,0,1.7,1.611l.689.083a1.561,1.561,0,0,0,1.71-1.215q1.822.207,3.647.4a2.08,2.08,0,0,0,1.7,1.622l.69.075a1.6,1.6,0,0,0,1.712-1.268q1.825.184,3.651.358a2.058,2.058,0,0,0,1.7,1.629l.69.066a1.631,1.631,0,0,0,1.714-1.317q1.827.162,3.654.314a2.033,2.033,0,0,0,1.706,1.632l.692.058a1.663,1.663,0,0,0,1.7-1.363q1.833.141,3.668.27a2.009,2.009,0,0,0,1.7,1.631l.692.049a1.7,1.7,0,0,0,1.716-1.4q1.828.117,3.659.224a1.986,1.986,0,0,0,1.709,1.629l.692.04a1.729,1.729,0,0,0,1.717-1.442q1.83.095,3.661.179a1.963,1.963,0,0,0,1.711,1.623l.692.031a1.764,1.764,0,0,0,1.716-1.477q1.832.072,3.663.134a1.938,1.938,0,0,0,1.712,1.612l.693.022a1.793,1.793,0,0,0,1.716-1.508q1.832.051,3.664.09a1.91,1.91,0,0,0,1.713,1.6l.693.013a1.824,1.824,0,0,0,1.716-1.535q1.831.027,3.664.044a1.882,1.882,0,0,0,1.714,1.581l.693.005a1.856,1.856,0,0,0,1.716-1.56q1.832,0,3.664,0a1.855,1.855,0,0,0,1.715,1.561l.693-.005a1.883,1.883,0,0,0,1.715-1.581q1.832-.017,3.664-.045a1.825,1.825,0,0,0,1.716,1.536l.693-.013a1.91,1.91,0,0,0,1.713-1.6q1.832-.04,3.664-.09a1.794,1.794,0,0,0,1.716,1.508l.693-.022a1.935,1.935,0,0,0,1.7-1.612q1.837-.062,3.674-.135a1.763,1.763,0,0,0,1.705,1.478l.693-.031a1.964,1.964,0,0,0,1.71-1.623q1.832-.084,3.661-.179a1.731,1.731,0,0,0,1.717,1.442l.692-.04a1.988,1.988,0,0,0,1.709-1.629q1.83-.106,3.659-.224a1.7,1.7,0,0,0,1.716,1.4l.692-.049a2.01,2.01,0,0,0,1.707-1.632q1.83-.129,3.657-.269a1.663,1.663,0,0,0,1.715,1.362l.691-.057a2.038,2.038,0,0,0,1.707-1.633q1.827-.152,3.654-.314a1.629,1.629,0,0,0,1.713,1.317l.691-.066a2.06,2.06,0,0,0,1.705-1.629q1.825-.174,3.651-.358a1.6,1.6,0,0,0,1.711,1.267l.69-.074a2.08,2.08,0,0,0,1.7-1.622q1.824-.2,3.647-.4a1.562,1.562,0,0,0,1.71,1.215l.689-.084a2.1,2.1,0,0,0,1.7-1.61q1.823-.219,3.643-.449a1.529,1.529,0,0,0,1.707,1.16l.688-.092a2.129,2.129,0,0,0,1.7-1.6q1.821-.241,3.639-.493a1.494,1.494,0,0,0,1.7,1.1l.688-.1a2.131,2.131,0,0,0,1.688-1.589A6.047,6.047,0,0,0,1056.077,789.215Z" fill="#a67c52"/>
      </g>
    </g>
    <circle id="Elipse_56" data-name="Elipse 56" cx="4.279" cy="4.279" r="4.279" transform="translate(993.045 775.82)" fill="#f06755"/>
  </g>
</svg>
