<svg xmlns="http://www.w3.org/2000/svg" width="512.588" height="76.168" viewBox="0 0 512.588 76.168">
  <g id="bolhas2" transform="translate(-143.014 -705.291)">
    <path id="Caminho_1076" data-name="Caminho 1076" d="M551.2,950.754H657.041l3.691-28.987c-16.591-6.877-41.187-13.794-67.764-7.305-15.7,3.808-23.508,10.219-32.95,15.854a70.254,70.254,0,0,1-21.8,8.781,62.213,62.213,0,0,1-7.733,1.243,51.014,51.014,0,0,1-12.667-.038c-9.17-1.088-17.291-4.352-27.665-7.694a174.22,174.22,0,0,0-31.357-7.227c-42.858-5.712-41.3,10.1-100.4,10.064-39.555-.039-51.018-7.111-72-8.937a141.954,141.954,0,0,0-28.4.7c-3.924.427-7.538.933-10.957,1.438q-1.574.232-3.031.466c-11.657,1.826-20.749,3.419-30.308,1.865a48.985,48.985,0,0,1-11.384-3.3c-12.085-5.09-22.886-14.532-38.312-12.317a37.569,37.569,0,0,0-15.854,6.411l3.187,28.987H551.2Z" transform="translate(-5.13 -169.295)" fill="#0fefde"/>
    <g id="Grupo_114" data-name="Grupo 114" transform="translate(-5.13 -169.295)">
      <circle id="Elipse_45" data-name="Elipse 45" cx="21.88" cy="21.88" r="21.88" transform="translate(244.324 890.224)" fill="#0fefde"/>
      <circle id="Elipse_46" data-name="Elipse 46" cx="15.638" cy="15.638" r="15.638" transform="translate(213.439 912.104)" fill="#0fefde"/>
      <circle id="Elipse_47" data-name="Elipse 47" cx="15.638" cy="15.638" r="15.638" transform="translate(189.023 874.586)" fill="#0fefde"/>
    </g>
    <g id="Grupo_115" data-name="Grupo 115" transform="translate(-5.13 -169.295)">
      <circle id="Elipse_48" data-name="Elipse 48" cx="15.43" cy="15.43" r="15.43" transform="translate(486.528 907.029)" fill="#0fefde"/>
      <path id="Caminho_1077" data-name="Caminho 1077" d="M532.134,943.754a10.985,10.985,0,0,0,7.042-10.276,10.815,10.815,0,0,0-.822-4.138,11.023,11.023,0,0,0-21.236,4.138,10.386,10.386,0,0,0,.411,2.932,10.884,10.884,0,0,0,6.6,7.344Z" fill="#0fefde"/>
      <circle id="Elipse_49" data-name="Elipse 49" cx="11.028" cy="11.028" r="11.028" transform="translate(534.331 896)" fill="#0fefde"/>
    </g>
  </g>
</svg>
