<svg xmlns="http://www.w3.org/2000/svg" width="512.588" height="38.885" viewBox="0 0 512.588 38.885">
  <path id="bolhas1" d="M825.947,762.754H720.1l-3.691-28.987c16.592-6.877,41.187-13.794,67.765-7.305,15.7,3.808,23.508,10.219,32.95,15.854a70.244,70.244,0,0,0,21.8,8.781,62.2,62.2,0,0,0,7.732,1.243,51.013,51.013,0,0,0,12.667-.038c9.17-1.088,17.291-4.352,27.666-7.694a174.2,174.2,0,0,1,31.357-7.227c42.858-5.712,41.3,10.1,100.4,10.064,39.556-.039,51.018-7.111,72-8.937a141.954,141.954,0,0,1,28.4.7c3.925.427,7.538.933,10.958,1.438q1.573.232,3.03.466c11.657,1.826,20.749,3.419,30.308,1.865a49,49,0,0,0,11.385-3.3c12.084-5.09,22.886-14.532,38.312-12.317A37.564,37.564,0,0,1,1229,733.767l-3.186,28.987H825.947Z" transform="translate(-716.412 -723.869)" fill="#0fefde"/>
</svg>
