<svg xmlns="http://www.w3.org/2000/svg" xmlns:xlink="http://www.w3.org/1999/xlink" width="193" height="193" viewBox="0 0 193 193">
  <defs>
    <filter id="Elipse_60" x="0" y="0" width="193" height="193" filterUnits="userSpaceOnUse">
      <feOffset dy="3" input="SourceAlpha"/>
      <feGaussianBlur stdDeviation="3" result="blur"/>
      <feFlood flood-opacity="0.161"/>
      <feComposite operator="in" in2="blur"/>
      <feComposite in="SourceGraphic"/>
    </filter>
  </defs>
  <g id="Grupo_179" data-name="Grupo 179" transform="translate(-350 1501)">
    <g transform="matrix(1, 0, 0, 1, 350, -1501)" filter="url(#Elipse_60)">
      <circle id="Elipse_60-2" data-name="Elipse 60" cx="87.5" cy="87.5" r="87.5" transform="translate(9 6)" fill="#0fefde"/>
    </g>
    <g id="Elipse_59" data-name="Elipse 59" transform="translate(372.772 -1481.228)" fill="#ff7bac" stroke="#1a3355" stroke-width="5">
      <circle cx="73.728" cy="73.728" r="73.728" stroke="none"/>
      <circle cx="73.728" cy="73.728" r="71.228" fill="none"/>
    </g>
    <path id="Caminho_1155" data-name="Caminho 1155" d="M-29.063-16.875h7.5V-15h1.875v1.875h-3.75V-15h-3.75v5.625h5.625V-7.5h1.875v5.625h-1.875V0h-7.5V-1.875h-1.875V-3.75h3.75v1.875h3.75V-7.5h-5.625V-9.375h-1.875V-15h1.875Zm15,1.875h3.75v1.875h3.75v1.875h-3.75v9.375h3.75V0h-5.625V-1.875h-1.875V-11.25h-1.875v-1.875h1.875ZM-.938-13.125h7.5v1.875H8.437v9.375H6.562V0h-7.5V-1.875H-2.813V-11.25H-.938ZM4.687-11.25H.937v9.375h3.75Zm7.5-1.875h9.375v1.875h1.875v9.375H21.563V0H15.938V3.75h-3.75Zm7.5,1.875h-3.75v9.375h3.75ZM-44.063,16h3.75v1.875h3.75V19.75h-3.75v9.375h3.75V31h-5.625V29.125h-1.875V19.75h-1.875V17.875h1.875Zm11.25-1.875h3.75v3.75h5.625V19.75h1.875V31h-3.75V19.75h-3.75V31h-3.75Zm22.5,5.625h-3.75V23.5h3.75Zm-5.625-1.875h7.5V19.75h1.875v5.625h-7.5v3.75h3.75V27.25h3.75v1.875H-8.438V31h-7.5V29.125h-1.875V19.75h1.875Zm22.5,0h7.5V19.75h1.875v1.875h-3.75V19.75H8.438v9.375h3.75V27.25h3.75v1.875H14.063V31h-7.5V29.125H4.688V19.75H6.563Zm13.125,0h3.75v11.25h3.75V17.875h3.75v11.25H29.063V31h-7.5V29.125H19.688Zm15,0h9.375V19.75h1.875v9.375H44.063V31H38.438v3.75h-3.75Zm7.5,1.875h-3.75v9.375h3.75Z" transform="translate(447 -1414)" fill="#1a3355"/>
  </g>
</svg>
