<svg xmlns="http://www.w3.org/2000/svg" width="166.982" height="214.7" viewBox="0 0 166.982 214.7">
  <g id="Grupo_147" data-name="Grupo 147" transform="translate(-889.685 -243.295)">
    <path id="Caminho_1072" data-name="Caminho 1072" d="M1056.147,256.226q-8.26,13.218-16.512,26.436a44.358,44.358,0,0,0-5.6,33.569,94.827,94.827,0,0,1-1.093,48.257c-2.723,9.312-7.141,22.787-21.239,37.457,0-.008-.008-.019-.011-.026a171.526,171.526,0,0,1-77.025,0,.263.263,0,0,0-.011.026c-14.1-14.67-18.516-28.145-21.239-37.457a94.826,94.826,0,0,1-1.093-48.257,44.359,44.359,0,0,0-5.6-33.569q-8.254-13.218-16.512-26.436a3.409,3.409,0,0,1,2.239-5.153,422.933,422.933,0,0,1,79.274-7.774c.485,0,.974,0,1.458,0s.974,0,1.458,0a422.94,422.94,0,0,1,79.275,7.774A3.409,3.409,0,0,1,1056.147,256.226Z" transform="translate(0 0)" fill="#461d3b"/>
    <path id="Caminho_1073" data-name="Caminho 1073" d="M1040.05,490.994a277.43,277.43,0,0,1-123.584,0,1.731,1.731,0,0,1-1.081-2.858l16.52-18.258a19.091,19.091,0,0,0,5.107-13.435l-.205-6.816a5.007,5.007,0,0,1,.455-2.25q1.237-2.736,2.474-5.465a.263.263,0,0,1,.011-.026,171.526,171.526,0,0,0,77.025,0c0,.007.007.018.011.026q1.241,2.73,2.473,5.465a5.055,5.055,0,0,1,.459,2.25l-.209,6.816a19.1,19.1,0,0,0,5.108,13.435l16.52,18.258A1.732,1.732,0,0,1,1040.05,490.994Z" transform="translate(-5.082 -39.969)" fill="#381632"/>
  </g>
</svg>
