<svg xmlns="http://www.w3.org/2000/svg" width="230.081" height="105.841" viewBox="0 0 230.081 105.841">
  <g id="sapatenis" transform="translate(1988.868 -1836.418)">
    <path id="Caminho_513" data-name="Caminho 513" d="M-1770.705,1924.746c-23.8,10-57.32,21.937-79.693,15.867-23.444-6.7-55.178-6.7-67.079-6.982a3.967,3.967,0,0,0-3.967,3.967,3.967,3.967,0,0,1-3.967,3.967l-46.729-1.983s-20.27,0-16.185-15.867a48.356,48.356,0,0,0,2.42-16.581,2.543,2.543,0,0,0-.4-1.27s-3.967-16.541,3.967-23.8c2.856-2.459.516-15.232.476-19.477a7.933,7.933,0,0,1,2.5-6.2,7.933,7.933,0,0,1,6.348-2.091c79.336,3.967,48-25.7,75.845-15.867,21.937,11.226,96.909,47.6,121.543,47.6,20.27,0,16.224,15.867,16.224,15.867a19.556,19.556,0,0,1-11.305,22.849Z" transform="translate(0 0)" fill="#e8eded"/>
    <path id="Caminho_514" data-name="Caminho 514" d="M-1770.705,2222.312c-23.8,10-57.32,21.937-79.693,15.867-23.444-6.7-55.178-6.7-67.079-6.982a3.967,3.967,0,0,0-3.967,3.967,3.967,3.967,0,0,1-3.967,3.967l-46.729-1.983s-20.27,0-16.185-15.867a48.357,48.357,0,0,0,2.42-16.581c5.395,12.654,50.656,9.56,86.119,10.631,46.213,1.111,40.1,7.735,61.406,7.735,35.7,0,78.979-23.4,78.979-23.4a19.556,19.556,0,0,1-11.305,22.651Z" transform="translate(0 -297.565)" fill="#71bbbc"/>
    <path id="Caminho_515" data-name="Caminho 515" d="M-1974.273,2221.772a6.736,6.736,0,0,1-.4-1.27A2.543,2.543,0,0,1-1974.273,2221.772Z" transform="translate(-11.631 -314.639)" fill="#6e4126"/>
    <path id="Caminho_516" data-name="Caminho 516" d="M-1788.355,1882.643l-.278.754a41.254,41.254,0,0,1-41.413,19.675c-23.8-2.935-34.035,14.8-37.843,23.8-19.437-.476-40.223,0-56.567-.992,0-17.573-7.14-34.233-24.2-38.8h-.4c.357-4.839-.833-12.1-.873-15.193a8.132,8.132,0,0,1,3.654-7.188,8.132,8.132,0,0,1,8.048-.507c9.679,4.562,26.141,17.1,40.739,15.074,28.363-3.967,32.409-31.735,32.409-31.735S-1824.214,1868.561-1788.355,1882.643Z" transform="translate(-31.896 -9.109)" fill="#ff7bac"/>
    <circle id="Oval" cx="3.967" cy="3.967" r="3.967" transform="translate(-1893.676 1858.262)" fill="#e8eded"/>
    <circle id="Elipse_17" data-name="Elipse 17" cx="3.967" cy="3.967" r="3.967" transform="translate(-1881.776 1862.229)" fill="#e8eded"/>
    <circle id="Elipse_18" data-name="Elipse 18" cx="3.967" cy="3.967" r="3.967" transform="translate(-1869.875 1866.196)" fill="#e8eded"/>
    <circle id="Elipse_19" data-name="Elipse 19" cx="3.967" cy="3.967" r="3.967" transform="translate(-1857.975 1870.163)" fill="#e8eded"/>
    <circle id="Elipse_20" data-name="Elipse 20" cx="3.967" cy="3.967" r="3.967" transform="translate(-1846.074 1874.13)" fill="#e8eded"/>
    <path id="Caminho_517" data-name="Caminho 517" d="M-1825.329,1838.428s-3.967,27.768-32.409,31.735c-17.017,2.38-37.01-15.55-43.436-15.867,79.336,3.967,48-25.7,75.845-15.867Z" transform="translate(-71.838 0)" fill="#0fefde"/>
  </g>
</svg>
