<svg xmlns="http://www.w3.org/2000/svg" width="165.295" height="149.218" viewBox="0 0 165.295 149.218">
  <g id="Grupo_146" data-name="Grupo 146" transform="translate(-404.016 -304.115)">
    <path id="Caminho_1058" data-name="Caminho 1058" d="M505.192,446.29a7.884,7.884,0,0,1-2.523,3.722c-1.2.993-1.7,1.737-10.878,2.771s-39.541.289-39.541.289-19.109-.868-19.44-4.3c0,0,.125,1.655-3.722-13.856L414.2,359.679s-8.749-40.167-9.651-42.96c-1.13-3.5-.64-6.235,3.309-7.666,12.022-4.357,46.214-4.908,68.6-4.908,0,0,33.863-.706,53.219,4.743,2.1.591,4.426,2.482,2.426,8.383-1.264,3.73-4.164,15.193-4.164,15.193S510.817,418.743,505.192,446.29Z" transform="translate(0 0)" fill="#d2dd37"/>
    <path id="Caminho_1059" data-name="Caminho 1059" d="M566.5,357.119s9.6-5.4,10.534-5.514c0,0,6.336-3.781,9.155,4.411,3.334,9.689,8.634,29.512,10.975,39.486.665,2.832,1.626,8.466-5.735,10.12,0,0-32.552,8.024-36.15,7.362l-3.419,16.82s38.962-10.2,52.529-16.1c0,0,10.2-3.309,4.688-19.081,0,0-13.953-50.957-14.56-52.171s-1.819-10.313-11.912-6.618c0,0-12.518,5.184-12.85,4.467Z" transform="translate(-41.396 -8.636)" fill="#d2dd37"/>
    <path id="Caminho_1060" data-name="Caminho 1060" d="M575.445,341.981,572.191,358.8s2.006-1.128,4.271-2.365l2.958-15.474C577.278,341.729,575.564,342.241,575.445,341.981Z" transform="translate(-47.09 -10.318)" fill="#c2c630"/>
  </g>
</svg>
