<svg xmlns="http://www.w3.org/2000/svg" width="161.481" height="197.118" viewBox="0 0 161.481 197.118">
  <g id="Grupo_136" data-name="Grupo 136" transform="translate(-147.13 -303)">
    <path id="Caminho_1051" data-name="Caminho 1051" d="M308.709,311.391,306.524,470.3l-.008.726c.055.373.11.738.157,1.095.959,7.086.238,10.786.238,10.786s.577,7.693-21.3,13.651-53.41,2.635-53.41,2.635c-31.2-3.9-31.96-13.972-31.96-13.972-1.095-4.566-.1-11.156.322-13.494.1-.547.165-.861.165-.861.042-.28.081-.573.119-.879.955-8.206-.555-24.475-.555-24.475l-3.807-114.64-.416-19.375c-5.257-4.061-.56-5.759-.56-5.759,29.431-5.525,112.959-.984,112.959-.984C314.611,306.3,308.709,311.391,308.709,311.391Z" transform="translate(-2.65)" fill="#f5b100"/>
    <path id="Caminho_1052" data-name="Caminho 1052" d="M151.136,337.6s5.147-4.026,8.2-2.8c4.495,1.809,4.4,1.613,5.941,1.625,5.227.039,20.909-.054,20.909-.054,7.15,0,8.026-4.8,8.026-4.8s2.14,6.609-7.5,6.745c0,0-17.271.776-21.64.415l-2.926-.23a34.679,34.679,0,0,0-6.1-1.838C154.161,336.334,151.136,337.6,151.136,337.6Z" transform="translate(-0.229 -1.63)" fill="#f5b100"/>
    <path id="Caminho_1053" data-name="Caminho 1053" d="M197.908,447.17s-2.421-4.763-7.4-5.164c-5.746-.463-17.288-.49-23.049-.7a10.775,10.775,0,0,0-5.5,1.03,4.291,4.291,0,0,1-5.444-1.517,4.781,4.781,0,0,0-2.952-2.221c-.66-.2-.466-.923-.839-2.627-1.363-6.221-2.783-19.736-3.331-26.353-1.426-17.168-3.793-55.469-.868-68.9,0,0,1.174-8.18,12.8-2.69,2.338,1.1,25.242.217,25.242.217s6.321.243,7.331-3.838l.541,14.78s-.467-5.427-8.27-5.958c-5.161-.353-15.527-.259-20.693.036-2.844.162-6.852,1-10.147,7.186-2.178,4.088-1.553,10.943-.145,18.454.141.754,1.043,1.864,1.12,2.889.084,1.127-.55,1.477-1.355,4.315-1.828,6.45-1.312,17.469,2,26.742.27.754,1.2,2.16,1.228,2.961.041,1.06-.876,2.307-1.155,4.081-.694,4.4-.317,12.128,2.166,17.5a12.529,12.529,0,0,0,10.753,6.717s15.655,1.041,20.747.19c2.246-.375,5.769-2.41,6.663-5.633Z" transform="translate(0 -1.792)" fill="#f5b100"/>
    <path id="Caminho_1054" data-name="Caminho 1054" d="M197.331,426.95s-1.8,4.271-5.2,4.839c-3.889.65-14.668.062-19.51-.541-6.4-.8-7.945-3.692-8.812-6.193a30.541,30.541,0,0,1-.912-17.912,10.954,10.954,0,0,0,.488-3.793,11.827,11.827,0,0,0-1.128-3.214c-2.781-6.645-3.3-17.772-1.743-23.438A45.843,45.843,0,0,0,162,370.687a9.54,9.54,0,0,0-.7-3.3c-2.127-5.724-2.245-8.662-1.562-11.646A12.658,12.658,0,0,1,171.014,345.7c4.685-.415,11.907-.3,15.935-.361a9.756,9.756,0,0,1,7.855,4.117s-.623-5.037-8.721-5.8c0,0-15.953-.461-21.316.135,0,0-7.042.108-10.265,9.561,0,0-1.526,5.9.813,16.3.157.7,1.066,1.924,1.092,2.636.046,1.281-1.211,3.651-1.526,4.893-1.469,5.807-1.363,12.694,1.435,23.916a17.813,17.813,0,0,0,1.247,3.413,5,5,0,0,1,.731,1.9c.008.915-.946,2.59-1.083,3.494-.749,4.93-1.152,14.385,3.033,19.664,1.833,2.311,5.133,5.281,13.976,5.254,4.632-.014,13.658,1.017,17.09-.162C199.029,432.006,197.331,426.95,197.331,426.95Z" transform="translate(-0.389 -2.31)" fill="#f5b100"/>
    <path id="Caminho_1055" data-name="Caminho 1055" d="M308.857,311.891s-16.386-.293-60.372.055c-13.067.1-49.835.541-52.273.054" transform="translate(-2.801 -0.501)" fill="none" stroke="#fff" stroke-miterlimit="10" stroke-width="0.9"/>
    <g id="Grupo_104" data-name="Grupo 104" transform="translate(197.907 469.987)">
      <path id="Caminho_1056" data-name="Caminho 1056" d="M307.095,482.227a115.235,115.235,0,0,1-50.808,11.419,133.628,133.628,0,0,1-22.731-1.978,136.95,136.95,0,0,1-32.575-9.836c.1-.547.165-.861.165-.861.042-.28.081-.573.119-.879a134.253,134.253,0,0,0,32.639,9.913c18.191,3.148,45.556,4.006,73.044-9.6l-.008.726C306.993,481.505,307.048,481.87,307.095,482.227Z" transform="translate(-200.98 -480.092)" fill="#cc910d"/>
    </g>
    <path id="Caminho_1057" data-name="Caminho 1057" d="M197.331,426.95s-1.8,4.271-5.2,4.839c-3.889.65-14.668.062-19.51-.541-6.4-.8-7.945-3.692-8.812-6.193a30.541,30.541,0,0,1-.912-17.912,10.954,10.954,0,0,0,.488-3.793,11.827,11.827,0,0,0-1.128-3.214c-2.781-6.645-3.3-17.772-1.743-23.438A45.843,45.843,0,0,0,162,370.687a9.54,9.54,0,0,0-.7-3.3c-2.127-5.724-2.245-8.662-1.562-11.646A12.658,12.658,0,0,1,171.014,345.7c4.685-.415,11.907-.3,15.935-.361a9.756,9.756,0,0,1,7.855,4.117s-.623-5.037-8.721-5.8c0,0-15.953-.461-21.316.135,0,0-7.042.108-10.265,9.561,0,0-1.526,5.9.813,16.3.157.7,1.066,1.924,1.092,2.636.046,1.281-1.211,3.651-1.526,4.893-1.469,5.807-1.363,12.694,1.435,23.916a17.813,17.813,0,0,0,1.247,3.413,5,5,0,0,1,.731,1.9c.008.915-.946,2.59-1.083,3.494-.749,4.93-1.152,14.385,3.033,19.664,1.833,2.311,5.133,5.281,13.976,5.254,4.632-.014,13.658,1.017,17.09-.162C199.029,432.006,197.331,426.95,197.331,426.95Z" transform="translate(-0.389 -2.31)" fill="#e6e6e6"/>
  </g>
</svg>
