<svg xmlns="http://www.w3.org/2000/svg" width="111.928" height="91.623" viewBox="0 0 111.928 91.623">
  <g id="Grupo_151" data-name="Grupo 151" transform="translate(0 -8)">
    <path id="Caminho_629" data-name="Caminho 629" d="M1054.664,897.269a1.292,1.292,0,0,1,1.115-1.574,374.493,374.493,0,0,1,82.755,0,1.294,1.294,0,0,1,1.122,1.538l-16.294,81.919a2.113,2.113,0,0,1-1.332,1.567,67.014,67.014,0,0,1-47.293-.013,2.117,2.117,0,0,1-1.32-1.507Q1064.041,938.236,1054.664,897.269Z" transform="translate(-1027.752 -885.404)" fill="#000100"/>
    <path id="Caminho_630" data-name="Caminho 630" d="M1064.706,899.675l-.715,2.008a1.844,1.844,0,0,1-2.757.929,16.393,16.393,0,0,0-15.047-1.922,14.981,14.981,0,0,0-3.974,2.3,15.333,15.333,0,0,0-5.589,10.992,32.623,32.623,0,0,0,.667,9.207c2.879,13.116,13.937,22.394,25.488,28.071a75.509,75.509,0,0,0,8.565,3.572,23.925,23.925,0,0,1,4.07,1.65,6.618,6.618,0,0,1,2.967,3.136l-2.7-12.031c-7.362,1.054-15.616-4.192-21.43-8.831a38.776,38.776,0,0,1-8.933-10.7c-3.853-6.61-6.12-18.329,2.4-22.657,2.117-1.075,5.02-1.125,7.957-.379a18.427,18.427,0,0,1,11.313,8.652l1.512,2.594Z" transform="translate(-1036.548 -882.362)" fill="#000100"/>
    <path id="Caminho_631" data-name="Caminho 631" d="M1085.2,960.135" transform="translate(-1012.881 -860.945)" fill="none" stroke="#000100" stroke-miterlimit="10" stroke-width="0.082"/>
  </g>
</svg>
