<svg xmlns="http://www.w3.org/2000/svg" width="79.915" height="115.842" viewBox="0 0 79.915 115.842">
  <g id="Grupo_145" data-name="Grupo 145" transform="translate(-721.1 -395.886)">
    <path id="Caminho_1061" data-name="Caminho 1061" d="M724.183,396.3s-3.119-.326-3.083,2.176l1.922,19.222s.29.8.653.689l8.862,80.986.034.313.256,2.3a7.6,7.6,0,0,0,3.675,5.223c7.592,4.171,33.85,7.64,46.955,0a7.435,7.435,0,0,0,3.868-4.739l2.8-21.954,7.568-60.93a2.134,2.134,0,0,0,.919-.87l2.393-19.633s.266-1.983-3.216-1.959C797.794,397.122,760.318,395.019,724.183,396.3Z" fill="#ff7bac"/>
    <path id="Caminho_1062" data-name="Caminho 1062" d="M798.982,397.89s-46.9,1.16-75.113-.472C723.869,397.418,782.842,397.092,798.982,397.89Z" fill="#5c144f"/>
    <path id="Caminho_1063" data-name="Caminho 1063" d="M734.809,419.874" fill="none" stroke="#272525" stroke-miterlimit="10" stroke-width="0.284"/>
    <g id="Grupo_109" data-name="Grupo 109">
      <g id="Grupo_108" data-name="Grupo 108">
        <path id="Caminho_1064" data-name="Caminho 1064" d="M726.492,418.81s6.045,77.323,8.076,81.192" fill="none" stroke="#5c144f" stroke-miterlimit="10" stroke-width="0.284"/>
        <path id="Caminho_1065" data-name="Caminho 1065" d="M739.875,502.383s-6.033-78.64-5.066-82.509" fill="none" stroke="#5c144f" stroke-miterlimit="10" stroke-width="0.284"/>
        <path id="Caminho_1066" data-name="Caminho 1066" d="M748.93,420.816s1.015,79.283,2.272,84.022" fill="none" stroke="#5c144f" stroke-miterlimit="10" stroke-width="0.284"/>
        <g id="Grupo_107" data-name="Grupo 107">
          <path id="Caminho_1067" data-name="Caminho 1067" d="M797.68,419.638c-37.864,4.4-73.926-1.227-73.926-1.227" fill="none" stroke="#5c144f" stroke-miterlimit="10" stroke-width="0.284"/>
          <path id="Caminho_1068" data-name="Caminho 1068" d="M767.112,421.228s-2.756,82.594-2.37,84.141" fill="none" stroke="#5c144f" stroke-miterlimit="10" stroke-width="0.284"/>
        </g>
        <path id="Caminho_1069" data-name="Caminho 1069" d="M783.166,420.841s-6.044,82.691-6.044,83.078" fill="none" stroke="#5c144f" stroke-miterlimit="10" stroke-width="0.284"/>
        <path id="Caminho_1070" data-name="Caminho 1070" d="M793.321,420.164s-8.559,79.5-8.559,81.047" fill="none" stroke="#5c144f" stroke-miterlimit="10" stroke-width="0.284"/>
      </g>
      <path id="Caminho_1071" data-name="Caminho 1071" d="M787.664,499.18s-4.618,5.416-23.042,6.286-31.553-4.787-32.206-7.471" fill="none" stroke="#5c144f" stroke-miterlimit="10" stroke-width="0.284"/>
    </g>
  </g>
</svg>
