<svg xmlns="http://www.w3.org/2000/svg" width="179.349" height="41.286" viewBox="0 0 179.349 41.286">
  <g id="Grupo_24" data-name="Grupo 24" transform="translate(0)">
    <g id="Grupo_19" data-name="Grupo 19">
      <path id="Caminho_230" data-name="Caminho 230" d="M1788.953,826.846q-70.485,1.2-141.045,0a10.67,10.67,0,0,0-10.634,10.828h0c-.007,6.037,4.728,11.5,10.583,12.094a754.5,754.5,0,0,0,141.147,0c5.855-.6,10.588-6.057,10.583-12.093h0A10.669,10.669,0,0,0,1788.953,826.846Z" transform="translate(-1628.754 -821.77)" fill="#fefbe6"/>
      <g id="Grupo_17" data-name="Grupo 17">
        <path id="Caminho_231" data-name="Caminho 231" d="M1807.494,827.1a4.679,4.679,0,0,0-4.5-4.657,1.653,1.653,0,0,0-1.52-1.037h-.645a1.641,1.641,0,0,0-1.518,1.042l-3.562.015a1.652,1.652,0,0,0-1.521-1.057h-.644a1.644,1.644,0,0,0-1.518,1.071l-3.562.014a1.658,1.658,0,0,0-1.521-1.085h-.645a1.643,1.643,0,0,0-1.517,1.1l-3.564.011a1.659,1.659,0,0,0-1.521-1.109h-.645a1.647,1.647,0,0,0-1.517,1.121l-3.563.01a1.663,1.663,0,0,0-1.522-1.131h-.645a1.65,1.65,0,0,0-1.517,1.142l-3.563.009a1.668,1.668,0,0,0-1.522-1.151h-.645a1.655,1.655,0,0,0-1.517,1.16l-3.562.007a1.67,1.67,0,0,0-1.522-1.168h-.645a1.66,1.66,0,0,0-1.517,1.176l-3.563.007a1.671,1.671,0,0,0-1.522-1.183h-.645a1.662,1.662,0,0,0-1.517,1.188l-3.564.006a1.673,1.673,0,0,0-1.521-1.194h-.645a1.664,1.664,0,0,0-1.506,1.2l-3.574,0a1.672,1.672,0,0,0-1.51-1.2h-.645a1.667,1.667,0,0,0-1.518,1.206l-3.563,0a1.675,1.675,0,0,0-1.521-1.209h-.645a1.672,1.672,0,0,0-1.519,1.211l-3.564,0a1.675,1.675,0,0,0-1.52-1.212h-.645a1.672,1.672,0,0,0-1.519,1.212q-1.782,0-3.564,0a1.674,1.674,0,0,0-1.519-1.212h-.645a1.674,1.674,0,0,0-1.52,1.212l-3.564,0a1.671,1.671,0,0,0-1.518-1.211h-.645a1.675,1.675,0,0,0-1.52,1.209l-3.563,0a1.67,1.67,0,0,0-1.519-1.206h-.645a1.672,1.672,0,0,0-1.521,1.2l-3.564,0a1.665,1.665,0,0,0-1.517-1.2h-.644a1.675,1.675,0,0,0-1.522,1.194l-3.563-.006a1.661,1.661,0,0,0-1.517-1.188h-.645a1.67,1.67,0,0,0-1.522,1.183l-3.564-.007a1.657,1.657,0,0,0-1.516-1.176h-.645a1.668,1.668,0,0,0-1.512,1.169l-3.574-.008a1.652,1.652,0,0,0-1.505-1.16h-.644a1.667,1.667,0,0,0-1.523,1.151l-3.563-.009a1.65,1.65,0,0,0-1.517-1.142h-.644a1.665,1.665,0,0,0-1.523,1.131l-3.563-.01a1.646,1.646,0,0,0-1.516-1.121h-.645a1.659,1.659,0,0,0-1.522,1.109l-3.563-.011a1.646,1.646,0,0,0-1.517-1.1h-.645a1.656,1.656,0,0,0-1.522,1.085l-3.563-.014a1.642,1.642,0,0,0-1.517-1.071h-.645a1.654,1.654,0,0,0-1.521,1.057l-3.563-.015a1.64,1.64,0,0,0-1.518-1.042h-.645a1.659,1.659,0,0,0-1.532,1.037,4.665,4.665,0,0,0-4.5,4.657,4.985,4.985,0,0,0,4.43,4.884,1.758,1.758,0,0,0,1.592,1.329l.643.032a1.565,1.565,0,0,0,1.6-1.18l3.406.146a1.769,1.769,0,0,0,1.591,1.347l.645.029a1.584,1.584,0,0,0,1.6-1.221q1.7.067,3.407.132a1.768,1.768,0,0,0,1.591,1.374l.645.026a1.607,1.607,0,0,0,1.6-1.26q1.7.062,3.408.119a1.769,1.769,0,0,0,1.591,1.4l.645.024a1.625,1.625,0,0,0,1.6-1.3q1.7.055,3.41.105a1.766,1.766,0,0,0,1.591,1.417l.645.021a1.642,1.642,0,0,0,1.6-1.327q1.705.048,3.41.091a1.768,1.768,0,0,0,1.592,1.435l.645.018a1.656,1.656,0,0,0,1.589-1.356q1.711.041,3.423.079a1.764,1.764,0,0,0,1.582,1.448l.645.015a1.674,1.674,0,0,0,1.6-1.381q1.705.034,3.411.065a1.766,1.766,0,0,0,1.594,1.459l.645.012a1.69,1.69,0,0,0,1.6-1.4l3.412.052a1.761,1.761,0,0,0,1.594,1.465l.646.009a1.7,1.7,0,0,0,1.6-1.423q1.707.023,3.413.04a1.757,1.757,0,0,0,1.6,1.469l.645.007a1.716,1.716,0,0,0,1.6-1.439q1.707.015,3.413.026a1.75,1.75,0,0,0,1.6,1.47l.646,0a1.726,1.726,0,0,0,1.6-1.451q1.707.008,3.413.013a1.747,1.747,0,0,0,1.6,1.467h.646a1.736,1.736,0,0,0,1.6-1.461h3.413a1.735,1.735,0,0,0,1.6,1.461h.646a1.743,1.743,0,0,0,1.6-1.467q1.706,0,3.413-.013a1.726,1.726,0,0,0,1.6,1.451l.645,0a1.751,1.751,0,0,0,1.6-1.47q1.707-.011,3.413-.026a1.715,1.715,0,0,0,1.6,1.439l.646-.008a1.752,1.752,0,0,0,1.584-1.468q1.713-.018,3.424-.04a1.7,1.7,0,0,0,1.588,1.423l.646-.009a1.763,1.763,0,0,0,1.594-1.465l3.412-.052a1.689,1.689,0,0,0,1.6,1.4l.645-.012a1.764,1.764,0,0,0,1.593-1.459q1.707-.031,3.412-.065a1.674,1.674,0,0,0,1.6,1.381l.645-.015a1.767,1.767,0,0,0,1.593-1.448l3.411-.079a1.659,1.659,0,0,0,1.6,1.356l.645-.018a1.767,1.767,0,0,0,1.592-1.435l3.411-.092a1.641,1.641,0,0,0,1.6,1.327l.644-.021a1.768,1.768,0,0,0,1.592-1.418q1.7-.05,3.41-.1a1.622,1.622,0,0,0,1.6,1.295l.645-.023a1.77,1.77,0,0,0,1.591-1.4q1.7-.057,3.409-.119a1.6,1.6,0,0,0,1.6,1.26l.644-.027a1.767,1.767,0,0,0,1.591-1.374q1.7-.063,3.408-.132a1.585,1.585,0,0,0,1.6,1.222l.644-.03a1.766,1.766,0,0,0,1.591-1.347q1.7-.071,3.406-.145a1.566,1.566,0,0,0,1.6,1.179l.644-.032a1.754,1.754,0,0,0,1.581-1.328A4.977,4.977,0,0,0,1807.494,827.1Z" transform="translate(-1628.145 -821.408)" fill="#a67c52"/>
      </g>
      <g id="Grupo_18" data-name="Grupo 18" transform="translate(0 23.24)">
        <path id="Caminho_232" data-name="Caminho 232" d="M1807.494,851.4a4.138,4.138,0,0,0-1.371-3.155,4.2,4.2,0,0,0-3.115-1.046,1.468,1.468,0,0,0-1.515-.888l-.642.063a1.849,1.849,0,0,0-1.514,1.186q-1.775.176-3.553.344a1.481,1.481,0,0,0-1.518-.92l-.643.057a1.835,1.835,0,0,0-1.514,1.2q-1.777.161-3.555.313a1.5,1.5,0,0,0-1.52-.96l-.644.051a1.818,1.818,0,0,0-1.514,1.217q-1.779.144-3.559.282a1.516,1.516,0,0,0-1.521-1l-.645.046a1.8,1.8,0,0,0-1.515,1.227q-1.779.129-3.561.25a1.537,1.537,0,0,0-1.522-1.033l-.645.04a1.791,1.791,0,0,0-1.516,1.236q-1.781.114-3.564.219a1.554,1.554,0,0,0-1.522-1.066l-.645.035a1.774,1.774,0,0,0-1.518,1.24q-1.782.1-3.564.189a1.574,1.574,0,0,0-1.524-1.1l-.645.03a1.758,1.758,0,0,0-1.518,1.243q-1.784.083-3.567.157a1.593,1.593,0,0,0-1.523-1.123l-.646.024a1.745,1.745,0,0,0-1.518,1.244q-1.785.066-3.569.125a1.612,1.612,0,0,0-1.523-1.147l-.646.019a1.728,1.728,0,0,0-1.509,1.241q-1.789.05-3.58.094a1.626,1.626,0,0,0-1.512-1.169l-.646.013a1.715,1.715,0,0,0-1.521,1.236q-1.785.036-3.57.063a1.649,1.649,0,0,0-1.523-1.188l-.646.008a1.7,1.7,0,0,0-1.521,1.228q-1.785.02-3.571.031a1.667,1.667,0,0,0-1.522-1.2l-.647,0a1.682,1.682,0,0,0-1.521,1.217q-1.786,0-3.571,0a1.682,1.682,0,0,0-1.522-1.218l-.646,0a1.668,1.668,0,0,0-1.523,1.2q-1.785-.011-3.571-.031a1.7,1.7,0,0,0-1.52-1.228l-.647-.008a1.65,1.65,0,0,0-1.523,1.188q-1.785-.028-3.57-.063a1.715,1.715,0,0,0-1.521-1.237l-.646-.013a1.63,1.63,0,0,0-1.524,1.169q-1.784-.043-3.569-.094a1.73,1.73,0,0,0-1.52-1.241l-.646-.019a1.612,1.612,0,0,0-1.524,1.147q-1.784-.059-3.568-.125a1.745,1.745,0,0,0-1.519-1.244l-.646-.024a1.592,1.592,0,0,0-1.523,1.123q-1.784-.074-3.568-.157a1.757,1.757,0,0,0-1.517-1.243l-.646-.03a1.571,1.571,0,0,0-1.512,1.1q-1.789-.09-3.577-.189a1.773,1.773,0,0,0-1.505-1.24l-.645-.035a1.555,1.555,0,0,0-1.523,1.066q-1.783-.106-3.564-.219a1.786,1.786,0,0,0-1.516-1.236l-.645-.04a1.535,1.535,0,0,0-1.521,1.033q-1.781-.121-3.562-.25a1.8,1.8,0,0,0-1.514-1.227l-.644-.047a1.519,1.519,0,0,0-1.521,1q-1.78-.136-3.558-.281a1.82,1.82,0,0,0-1.515-1.217l-.644-.051a1.5,1.5,0,0,0-1.519.96q-1.779-.153-3.556-.313a1.836,1.836,0,0,0-1.514-1.2l-.643-.057a1.482,1.482,0,0,0-1.518.92q-1.777-.168-3.552-.344a1.853,1.853,0,0,0-1.513-1.186l-.643-.063a1.472,1.472,0,0,0-1.526.887,4.128,4.128,0,0,0-4.485,4.2,5.655,5.655,0,0,0,4.413,5.335,1.992,1.992,0,0,0,1.587,1.485l.641.094a1.4,1.4,0,0,0,1.59-1.028q1.7.235,3.4.46a1.985,1.985,0,0,0,1.588,1.49l.643.086a1.425,1.425,0,0,0,1.592-1.082q1.7.213,3.4.418a1.965,1.965,0,0,0,1.59,1.5l.643.077a1.457,1.457,0,0,0,1.6-1.134q1.7.193,3.4.376a1.941,1.941,0,0,0,1.59,1.514l.644.069a1.49,1.49,0,0,0,1.6-1.182q1.7.172,3.408.334a1.92,1.92,0,0,0,1.591,1.521l.644.062a1.523,1.523,0,0,0,1.6-1.229q1.705.151,3.411.293a1.9,1.9,0,0,0,1.592,1.523l.645.054a1.552,1.552,0,0,0,1.59-1.272q1.712.13,3.425.252a1.873,1.873,0,0,0,1.583,1.522l.646.046a1.584,1.584,0,0,0,1.6-1.31q1.707.109,3.415.209a1.853,1.853,0,0,0,1.595,1.52l.646.037a1.614,1.614,0,0,0,1.6-1.346q1.708.088,3.417.167a1.833,1.833,0,0,0,1.6,1.515l.647.029a1.647,1.647,0,0,0,1.6-1.379q1.71.067,3.419.125a1.808,1.808,0,0,0,1.6,1.5l.647.021a1.675,1.675,0,0,0,1.6-1.408q1.709.048,3.42.084a1.783,1.783,0,0,0,1.6,1.492l.647.012a1.7,1.7,0,0,0,1.6-1.433q1.709.025,3.42.041a1.758,1.758,0,0,0,1.6,1.476l.647,0a1.732,1.732,0,0,0,1.6-1.457q1.709.006,3.42,0a1.731,1.731,0,0,0,1.6,1.457l.647,0a1.758,1.758,0,0,0,1.6-1.476q1.71-.016,3.42-.042a1.7,1.7,0,0,0,1.6,1.434l.647-.012a1.784,1.784,0,0,0,1.6-1.492q1.709-.038,3.419-.084a1.677,1.677,0,0,0,1.6,1.408l.647-.021a1.806,1.806,0,0,0,1.587-1.5q1.715-.057,3.429-.126a1.645,1.645,0,0,0,1.591,1.38l.646-.029a1.833,1.833,0,0,0,1.6-1.515q1.708-.078,3.417-.167a1.614,1.614,0,0,0,1.6,1.346l.647-.037a1.856,1.856,0,0,0,1.6-1.52q1.708-.1,3.415-.209a1.584,1.584,0,0,0,1.6,1.31l.645-.046a1.876,1.876,0,0,0,1.594-1.523q1.707-.12,3.413-.251a1.552,1.552,0,0,0,1.6,1.271l.645-.053a1.9,1.9,0,0,0,1.593-1.524q1.705-.141,3.411-.293a1.521,1.521,0,0,0,1.6,1.229l.645-.062a1.924,1.924,0,0,0,1.591-1.521q1.7-.163,3.408-.334a1.489,1.489,0,0,0,1.6,1.183l.644-.069a1.942,1.942,0,0,0,1.591-1.514q1.7-.184,3.4-.376a1.457,1.457,0,0,0,1.595,1.134l.644-.078a1.964,1.964,0,0,0,1.589-1.5q1.7-.2,3.4-.419a1.426,1.426,0,0,0,1.593,1.083l.642-.086a1.987,1.987,0,0,0,1.588-1.491q1.7-.225,3.4-.46a1.394,1.394,0,0,0,1.59,1.027l.641-.094a1.989,1.989,0,0,0,1.577-1.483A5.644,5.644,0,0,0,1807.494,851.4Z" transform="translate(-1628.145 -846.307)" fill="#a67c52"/>
      </g>
    </g>
    <circle id="Elipse_7" data-name="Elipse 7" cx="3.994" cy="3.994" r="3.994" transform="translate(120.517 15.834)" fill="#f06755"/>
  </g>
</svg>
