<svg xmlns="http://www.w3.org/2000/svg" width="690.927" height="123.56" viewBox="0 0 690.927 123.56">
  <g id="Grupo_103" data-name="Grupo 103" transform="translate(-509.24 -480.839)">
    <g id="_2" data-name="2" transform="translate(510.143 481.742)">
      <g id="Grupo_96" data-name="Grupo 96">
        <g id="Grupo_95" data-name="Grupo 95">
          <path id="Caminho_1031" data-name="Caminho 1031" d="M856.906,508.287v-7.563H808.933v7.563H796.408v-7.563H748.433v7.563h-4.962V485.6H703.059v7.563H695.5v15.125h-4.963V485.6H650.123v7.563H642.56v15.125H630.035v-7.563H582.062v7.563H577.1V493.162h-7.562V485.6H521.562v7.563H514v70.66h7.562v7.563h47.974v-7.563h12.525v7.563h47.974v-7.563H637.6V533.573h4.963v37.812h32.849V533.573H695.5v37.812h32.849V533.573h12.525v30.249h7.562v7.563h47.974v-7.563h12.525v7.563h47.974v-7.563h7.562V508.287ZM574.5,538.536H546.849V518.448H574.5Z" transform="translate(-511.046 -482.645)" fill="#ef5a78"/>
          <path id="Caminho_1032" data-name="Caminho 1032" d="M858.958,573.436H805.076v-7.562h-6.617v7.562H744.576v-7.562h-7.562v-30.25H730.4v37.812H691.639V535.624H677.46v37.812H638.7v-7.562h-6.617v7.562H578.2v-7.562h-6.616v7.562H517.706v-7.562h-7.563V489.3h7.563v-7.563h53.882V489.3h7.562v7.562h52.937v7.563H638.7V489.3h7.562v-7.563h46.32V489.3H699.2v-7.563h46.32v15.125h52.937v7.563h6.617v-7.563h53.882v7.563h7.562v61.444h-7.562Zm-47.974-5.908h42.066v-7.562h7.563V510.338h-7.563v-7.563H810.983v7.563H792.551v-7.563H750.485v7.563H739.614V487.65h-34.5v7.563h-7.563v15.125H686.677V487.65h-34.5v7.563h-7.562v15.125H626.178v-7.563H584.112v7.563H573.241V495.213h-7.562V487.65H523.613v7.563h-7.562v64.753h7.562v7.562h42.066v-7.562h18.433v7.562h42.066v-7.562h7.562v-30.25h10.872v37.812h26.94V529.716h26v37.812h26.941V529.716h18.434v30.25h7.562v7.562h42.066v-7.562h18.433ZM576.55,540.586H542.992V514.591H576.55ZM548.9,534.679h21.741V520.5H548.9Z" transform="translate(-510.143 -481.742)" fill="aqua"/>
        </g>
      </g>
      <g id="Grupo_98" data-name="Grupo 98" transform="translate(381.073 2.954)">
        <g id="Grupo_97" data-name="Grupo 97">
          <path id="Caminho_1033" data-name="Caminho 1033" d="M1297.64,533.573v4.963h7.562V546.1h7.562v25.287H1196.729v-7.562H1184.2v7.562H1136.23v-7.562h-7.562v-30.25h-20.088v7.562h-7.562v30.249h-32.849v-7.562h-4.963v7.562H1007.67V485.6h55.536v7.562h7.562v7.562h60.5v7.562h4.963v-7.562H1184.2v7.562h12.525v-7.562H1244.7v7.562h4.963V485.6h32.849v15.125h30.25v25.287H1305.2v7.562Z" transform="translate(-1007.67 -485.599)" fill="#ef5a78"/>
        </g>
      </g>
    </g>
    <g id="_2-2" data-name="2" transform="translate(513.097 484.696)">
      <g id="Grupo_99" data-name="Grupo 99" transform="translate(0)">
        <path id="Caminho_1034" data-name="Caminho 1034" d="M856.906,508.287v-7.563H808.933v7.563H796.408v-7.563H748.433v7.563h-4.962V485.6H703.059v7.563H695.5v15.125h-4.963V485.6H650.123v7.563H642.56v15.125H630.035v-7.563H582.062v7.563H577.1V493.162h-7.562V485.6H521.562v7.563H514v70.66h7.562v7.563h47.974v-7.563h12.525v7.563h47.974v-7.563H637.6V533.573h4.963v37.812h32.849V533.573H695.5v37.812h32.849V533.573h12.525v30.249h7.562v7.563h47.974v-7.563h12.525v7.563h47.974v-7.563h7.562V508.287ZM574.5,538.536H546.849V518.448H574.5Z" transform="translate(-514 -485.599)" fill="#ef5a78" stroke="aqua" stroke-miterlimit="10" stroke-width="7.714"/>
      </g>
      <g id="Grupo_100" data-name="Grupo 100" transform="translate(378.119 0)">
        <path id="Caminho_1035" data-name="Caminho 1035" d="M1297.64,533.573v4.963h7.562V546.1h7.562v25.287H1196.729v-7.562H1184.2v7.562H1136.23v-7.562h-7.562v-30.25h-20.088v7.562h-7.562v30.249h-32.849v-7.562h-4.963v7.562H1007.67V485.6h55.536v7.562h7.562v7.562h60.5v7.562h4.963v-7.562H1184.2v7.562h12.525v-7.562H1244.7v7.562h4.963V485.6h32.849v15.125h30.25v25.287H1305.2v7.562Z" transform="translate(-1007.67 -485.599)" fill="#ef5a78" stroke="aqua" stroke-miterlimit="10" stroke-width="7.714"/>
      </g>
    </g>
    <g id="_1" data-name="1" transform="translate(521.961 493.558)">
      <path id="Caminho_1036" data-name="Caminho 1036" d="M533.134,497.169h30.25v7.563h7.562v7.562H555.821v-7.562H540.7v52.935h15.125v-7.561h15.125v7.561h-7.562v7.563h-30.25v-7.563h-7.562V504.732h7.562Z" transform="translate(-525.572 -497.169)" fill="#fff"/>
      <path id="Caminho_1037" data-name="Caminho 1037" d="M612.121,516.916H642.37v7.562h7.563v37.811H642.37v7.563H612.121v-7.563h-7.563V524.478h7.563Zm22.687,7.562H619.683v37.811h15.125Z" transform="translate(-544.06 -501.791)" fill="#fff"/>
      <path id="Caminho_1038" data-name="Caminho 1038" d="M698.67,497.169h22.688v7.563H706.233v15.124h15.125v7.562H706.233V565.23H691.108V527.418h-7.562v-7.562h7.562V504.732h7.562Z" transform="translate(-562.548 -497.169)" fill="#fff"/>
      <path id="Caminho_1039" data-name="Caminho 1039" d="M767.784,497.169h22.687v7.563H775.347v15.124h15.124v7.562H775.347V565.23H760.222V527.418h-7.563v-7.562h7.563V504.732h7.562Z" transform="translate(-578.725 -497.169)" fill="#fff"/>
      <path id="Caminho_1040" data-name="Caminho 1040" d="M829.335,516.916h30.25v7.562h7.562v22.687H836.9v15.124h15.126v-7.561h15.124v7.561h-7.562v7.563h-30.25v-7.563h-7.562V524.478h7.562Zm22.688,7.562H836.9V539.6h15.126Z" transform="translate(-594.903 -501.791)" fill="#fff"/>
      <path id="Caminho_1041" data-name="Caminho 1041" d="M908.322,516.916h30.25v7.562h7.562v22.687h-30.25v15.124h15.125v-7.561h15.125v7.561h-7.562v7.563h-30.25v-7.563H900.76V524.478h7.562Zm22.687,7.562H915.884V539.6h15.125Z" transform="translate(-613.391 -501.791)" fill="#fff"/>
      <path id="Caminho_1042" data-name="Caminho 1042" d="M1019.241,497.169h37.811v7.563h7.563v22.686h-7.563v7.563h7.563v22.686h-7.563v7.563h-37.811Zm30.249,7.563h-15.124v22.686h15.124Zm0,30.249h-15.124v22.686h15.124Z" transform="translate(-641.123 -497.169)" fill="#fff"/>
      <path id="Caminho_1043" data-name="Caminho 1043" d="M1098.229,516.916h15.124V532.04h7.562V539.6h-7.562v30.249h-15.124Zm30.249,0H1143.6V532.04h-22.687v-7.562h7.563Z" transform="translate(-659.612 -501.791)" fill="#fff"/>
      <path id="Caminho_1044" data-name="Caminho 1044" d="M1184.776,516.916h30.249v7.562h7.563v22.687h-30.249v15.124h15.125v-7.561h15.124v7.561h-7.563v7.563h-30.249v-7.563h-7.561V524.478h7.561Zm22.688,7.562h-15.125V539.6h15.125Z" transform="translate(-678.1 -501.791)" fill="#fff"/>
      <path id="Caminho_1045" data-name="Caminho 1045" d="M1263.764,516.916h30.249v7.562h7.563v45.374h-37.812v-7.563H1256.2V547.165h7.562V539.6h22.687V524.478h-15.124v7.562H1256.2v-7.562h7.562Zm22.687,30.249h-15.124v15.124h15.124Z" transform="translate(-696.588 -501.791)" fill="#fff"/>
      <path id="Caminho_1046" data-name="Caminho 1046" d="M1335.19,497.169h15.124v30.249h7.562v-7.562h7.563v-7.562h15.124v7.562H1373v7.562h-7.561v7.563h-7.563v7.562h7.563v7.563H1373v7.561h7.563v7.563h-15.124v-7.563h-7.563v-7.561h-7.562V565.23H1335.19Z" transform="translate(-715.076 -497.169)" fill="#fff"/>
    </g>
    <g id="Grupo_101" data-name="Grupo 101" transform="translate(1048.641 558.763)">
      <path id="Caminho_1047" data-name="Caminho 1047" d="M1213.2,597.056l4.174-.632,4.419,29.223-4.174.631Zm3.543-4.807,12.525-1.894.631,4.176-12.525,1.893Zm10.874,15.436,8.351-1.262,3.156,20.874-16.7,2.525-.631-4.174,12.524-1.894-1.893-12.525-4.175.632Zm2.282-13.154,4.175-.632.631,4.175-4.175.631Z" transform="translate(-1213.203 -584.185)"/>
      <path id="Caminho_1048" data-name="Caminho 1048" d="M1253.005,602.187l4.174-.631.631,4.174-4.174.632Zm1.894,12.525,4.174-.631,1.262,8.349-4.175.631Zm1.649-17.331,12.524-1.894.632,4.175-12.525,1.893Zm13.156,2.281,4.174-.632,3.787,25.048-16.7,2.525-.631-4.174,12.525-1.894-1.263-8.349-12.524,1.894-.631-4.175,12.524-1.894Z" transform="translate(-1222.519 -585.387)"/>
      <path id="Caminho_1049" data-name="Caminho 1049" d="M1290.334,591.857l12.525-1.894.631,4.174-8.349,1.263,3.788,25.048-4.175.631Zm13.156,2.28,4.175-.631,2.525,16.7-4.175.631Zm3.544-4.805,8.349-1.263.631,4.175-8.349,1.262Zm8.98,2.912,4.175-.632,3.787,25.048-4.174.632Z" transform="translate(-1231.257 -583.65)"/>
      <path id="Caminho_1050" data-name="Caminho 1050" d="M1340.213,589l4.175-.631,1.263,8.349,12.524-1.894-1.262-8.349,4.174-.631,1.893,12.525-16.7,2.525,1.262,8.349-4.175.631Zm3.544-4.806,12.524-1.893.632,4.174-12.525,1.894Zm3.788,25.049,12.525-1.894.631,4.174-12.525,1.894Zm11.893-6.069,4.173-.631.631,4.175-4.174.631Z" transform="translate(-1242.932 -582.3)"/>
    </g>
  </g>
</svg>
