<svg id="bg2" xmlns="http://www.w3.org/2000/svg" xmlns:xlink="http://www.w3.org/1999/xlink" width="1440" height="900" viewBox="0 0 1440 900">
  <defs>
    <clipPath id="clip-path">
      <rect id="Retângulo_27" data-name="Retângulo 27" width="1440" height="900" fill="#fff" stroke="#707070" stroke-width="1"/>
    </clipPath>
  </defs>
  <rect id="Retângulo_54" data-name="Retângulo 54" width="1440" height="900" fill="#306eff"/>
  <g id="certo" opacity="0.1" clip-path="url(#clip-path)">
    <g id="Grupo_80" data-name="Grupo 80" transform="translate(-1045.98 -158.122)">
      <rect id="Retângulo_15" data-name="Retângulo 15" width="1849.202" height="984.819" transform="translate(845.902 129.659)" fill="#f6dea9"/>
      <path id="Caminho_518" data-name="Caminho 518" d="M1822.816,715.394c-56.787,0-90.567-8.047-185.86-5.843-68.316,1.579-111.287,3.429-157.022-5.717-5.426-1.085-7.242-22.1-7.242-22.1s.494-28.447,6.1-32.777c25.154-19.438,108.849-.252,147.495,0,50.826.33,145.969-17.532,197.42-4.955,9.349,2.285,5.717,29.346,5.717,29.346S1833.2,715.394,1822.816,715.394Z" transform="translate(16.162 11.122)" fill="#fcfae6"/>
      <path id="Caminho_519" data-name="Caminho 519" d="M1450.351,714.784c-35.543,0-33.542.254-67.462-5.844-42.114-7.571-114.337-6.1-147.154-5.717-3.566.042-4.532-22.1-4.532-22.1s-.888-29.79,3.816-32.777c19.813-12.577,67.275-6.349,91.464-6.1,31.813.331,89.183-5.716,124.425,1.143,6.166,1.2,1.726,38.113,1.726,38.113S1456.852,714.784,1450.351,714.784Z" transform="translate(12.21 11.132)" fill="#fcfae6"/>
      <path id="Caminho_520" data-name="Caminho 520" d="M2028.6,710.982c-34.554,7.622-144.126,4.425-179.381.508-4.574-.508,3.643-28.414,3.811-34.809.3-11.455-11.795-31.9-3.811-36.334,6.86-3.811,44.279,3.942,73.429,3.049,15.049-.461,99.463-7.717,103.157,5.336C2029.619,662.2,2029.713,710.737,2028.6,710.982Z" transform="translate(22.279 11.118)" fill="#fcfae6"/>
      <path id="Caminho_521" data-name="Caminho 521" d="M1006.1,715.394c-56.787,0-90.567-8.047-185.86-5.843-68.317,1.579-111.288,3.429-157.023-5.717-5.425-1.085-7.241-22.1-7.241-22.1s.494-28.447,6.1-32.777c25.155-19.438,108.849-.252,147.495,0,50.826.33,145.969-17.532,197.42-4.955,9.348,2.285,5.717,29.346,5.717,29.346S1016.483,715.394,1006.1,715.394Z" transform="translate(2.798 11.122)" fill="#fcfae6"/>
      <path id="Caminho_522" data-name="Caminho 522" d="M1211.885,710.982c-34.555,7.622-144.127,4.425-179.382.508-4.574-.508,3.643-28.414,3.811-34.809.3-11.455-11.795-31.9-3.811-36.334,6.86-3.811,44.279,3.942,73.43,3.049,15.048-.461,99.462-7.717,103.157,5.336C1212.9,662.2,1212.994,710.737,1211.885,710.982Z" transform="translate(8.915 11.118)" fill="#fcfae6"/>
      <path id="Caminho_523" data-name="Caminho 523" d="M1415.582,618.648c-56.787,0-90.567-8.048-185.86-5.844-68.316,1.58-111.288,3.43-157.022-5.717-5.426-1.084-7.242-22.1-7.242-22.1s.494-28.446,6.1-32.777c25.154-19.437,108.849-.251,147.494,0,50.827.331,145.97-17.531,197.421-4.954,9.348,2.285,5.717,29.346,5.717,29.346S1425.967,618.648,1415.582,618.648Z" transform="translate(9.498 9.539)" fill="#fcfae6"/>
      <path id="Caminho_524" data-name="Caminho 524" d="M1043.117,618.036c-35.544,0-33.543.254-67.462-5.843-42.115-7.572-114.337-6.1-147.154-5.717-3.565.042-4.533-22.1-4.533-22.1s-.888-29.791,3.818-32.777c19.812-12.578,67.275-6.349,91.464-6.1,31.813.331,89.182-5.717,124.425,1.143,6.165,1.2,1.726,38.113,1.726,38.113S1049.618,618.036,1043.117,618.036Z" transform="translate(5.546 9.549)" fill="#fcfae6"/>
      <path id="Caminho_525" data-name="Caminho 525" d="M1621.369,614.235c-34.555,7.623-144.126,4.425-179.381.508-4.574-.508,3.642-28.413,3.811-34.809.3-11.454-11.8-31.9-3.811-36.333,6.859-3.811,44.279,3.942,73.429,3.049,15.048-.461,99.462-7.717,103.157,5.336C1622.385,565.452,1622.479,613.99,1621.369,614.235Z" transform="translate(15.615 9.535)" fill="#fcfae6"/>
      <path id="Caminho_526" data-name="Caminho 526" d="M2235.676,618.648c-56.787,0-90.567-8.048-185.86-5.844-68.317,1.58-111.288,3.43-157.023-5.717-5.425-1.084-7.241-22.1-7.241-22.1s.494-28.446,6.1-32.777c25.155-19.437,108.849-.251,147.495,0,50.826.331,145.969-17.531,197.422-4.954,9.347,2.285,5.716,29.346,5.716,29.346S2246.061,618.648,2235.676,618.648Z" transform="translate(22.918 9.539)" fill="#fcfae6"/>
      <path id="Caminho_527" data-name="Caminho 527" d="M1863.211,618.036c-35.544,0-33.543.254-67.463-5.843-42.114-7.572-114.336-6.1-147.154-5.717-3.565.042-4.532-22.1-4.532-22.1s-.888-29.791,3.816-32.777c19.813-12.578,67.275-6.349,91.464-6.1,31.814.331,89.183-5.717,124.425,1.143,6.166,1.2,1.727,38.113,1.727,38.113S1869.712,618.036,1863.211,618.036Z" transform="translate(18.965 9.549)" fill="#fcfae6"/>
      <path id="Caminho_528" data-name="Caminho 528" d="M2441.463,614.235c-34.555,7.623-144.127,4.425-179.382.508-4.573-.508,3.643-28.413,3.811-34.809.3-11.454-11.8-31.9-3.811-36.333,6.86-3.811,44.279,3.942,73.43,3.049,15.048-.461,99.462-7.717,103.157,5.336C2442.479,565.452,2442.572,613.99,2441.463,614.235Z" transform="translate(29.034 9.535)" fill="#fcfae6"/>
      <path id="Caminho_529" data-name="Caminho 529" d="M2643.66,716.144c-56.787,0-90.567-8.048-185.86-5.844-68.316,1.58-111.288,3.43-157.022-5.716-5.426-1.085-7.241-22.1-7.241-22.1s.494-28.447,6.1-32.777c25.154-19.438,108.85-.252,147.494,0,50.827.33,145.97-17.532,197.421-4.955,9.349,2.285,5.717,29.346,5.717,29.346S2654.045,716.144,2643.66,716.144Z" transform="translate(29.594 11.134)" fill="#fcfae6"/>
      <path id="Caminho_530" data-name="Caminho 530" d="M2271.2,715.533c-35.544,0-33.543.254-67.462-5.844-42.115-7.571-114.337-6.1-147.154-5.717-3.565.042-4.533-22.1-4.533-22.1s-.887-29.79,3.818-32.777c19.812-12.577,67.275-6.349,91.463-6.1,31.813.331,89.182-5.716,124.426,1.143,6.165,1.2,1.726,38.113,1.726,38.113S2277.7,715.533,2271.2,715.533Z" transform="translate(25.641 11.144)" fill="#fcfae6"/>
      <path id="Caminho_531" data-name="Caminho 531" d="M2849.447,711.732c-34.555,7.622-144.126,4.425-179.381.507-4.573-.507,3.642-28.414,3.812-34.808.3-11.455-11.8-31.9-3.812-36.334,6.86-3.811,44.279,3.942,73.429,3.049,15.048-.461,99.462-7.717,103.156,5.336C2850.463,662.948,2850.557,711.487,2849.447,711.732Z" transform="translate(35.71 11.131)" fill="#fcfae6"/>
      <path id="Caminho_532" data-name="Caminho 532" d="M3054.644,623.148c-56.787,0-90.567-8.048-185.86-5.844-68.316,1.579-111.288,3.43-157.022-5.717-5.427-1.086-7.241-22.1-7.241-22.1s.494-28.446,6.1-32.777c25.154-19.437,108.849-.251,147.494,0,50.826.331,145.969-17.531,197.421-4.955,9.349,2.286,5.717,29.346,5.717,29.346S3065.03,623.148,3054.644,623.148Z" transform="translate(36.319 9.612)" fill="#fcfae6"/>
      <path id="Caminho_533" data-name="Caminho 533" d="M2682.179,622.536c-35.543,0-33.542.254-67.462-5.844-42.114-7.571-114.337-6.1-147.154-5.716-3.565.041-4.532-22.106-4.532-22.106s-.888-29.79,3.816-32.776c19.813-12.578,67.275-6.349,91.463-6.1,31.813.33,89.183-5.717,124.425,1.143,6.166,1.2,1.726,38.112,1.726,38.112S2688.68,622.536,2682.179,622.536Z" transform="translate(32.366 9.622)" fill="#fcfae6"/>
      <path id="Caminho_534" data-name="Caminho 534" d="M1377.333,917.887c-56.787,0-90.567-8.048-185.86-5.844-68.316,1.579-111.287,3.43-157.022-5.717-5.426-1.085-7.241-22.1-7.241-22.1s.493-28.446,6.1-32.777c25.154-19.437,108.85-.251,147.495,0,50.826.331,145.969-17.531,197.421-4.955,9.349,2.286,5.717,29.346,5.717,29.346S1387.719,917.887,1377.333,917.887Z" transform="translate(8.873 14.435)" fill="#fcfae6"/>
      <path id="Caminho_535" data-name="Caminho 535" d="M1004.868,917.275c-35.543,0-33.542.254-67.462-5.844-42.114-7.571-114.337-6.1-147.154-5.717-3.565.042-4.532-22.1-4.532-22.1s-.888-29.79,3.816-32.776c19.813-12.577,67.275-6.35,91.464-6.1,31.813.33,89.183-5.717,124.425,1.143,6.166,1.2,1.726,38.112,1.726,38.112S1011.369,917.275,1004.868,917.275Z" transform="translate(4.92 14.445)" fill="#fcfae6"/>
      <path id="Caminho_536" data-name="Caminho 536" d="M1583.12,913.474c-34.554,7.623-144.126,4.425-179.381.508-4.574-.508,3.643-28.413,3.811-34.809.3-11.454-11.795-31.9-3.811-36.334,6.86-3.81,44.279,3.943,73.429,3.049,15.049-.461,99.463-7.717,103.157,5.336C1584.136,864.691,1584.23,913.229,1583.12,913.474Z" transform="translate(14.989 14.432)" fill="#fcfae6"/>
      <path id="Caminho_537" data-name="Caminho 537" d="M766.4,913.474c-34.555,7.623-144.127,4.425-179.382.508-4.574-.508,3.643-28.413,3.811-34.809.3-11.454-11.795-31.9-3.811-36.334,6.86-3.81,44.279,3.943,73.43,3.049,15.048-.461,99.462-7.717,103.157,5.336C767.418,864.691,767.511,913.229,766.4,913.474Z" transform="translate(1.625 14.432)" fill="#fcfae6"/>
      <path id="Caminho_538" data-name="Caminho 538" d="M970.1,821.14c-56.787,0-90.567-8.048-185.86-5.844-68.316,1.58-111.288,3.43-157.022-5.716-5.426-1.085-7.242-22.1-7.242-22.1s.494-28.447,6.1-32.777c25.154-19.438,108.849-.252,147.494,0,50.827.33,145.97-17.532,197.421-4.955,9.347,2.285,5.717,29.346,5.717,29.346S980.484,821.14,970.1,821.14Z" transform="translate(2.209 12.852)" fill="#fcfae6"/>
      <path id="Caminho_539" data-name="Caminho 539" d="M1175.886,816.728c-34.555,7.622-144.126,4.425-179.381.508-4.574-.508,3.642-28.414,3.811-34.809.3-11.455-11.8-31.9-3.811-36.334,6.859-3.811,44.279,3.943,73.429,3.049,15.048-.461,99.462-7.717,103.157,5.336C1176.9,767.944,1177,816.483,1175.886,816.728Z" transform="translate(8.325 12.849)" fill="#fcfae6"/>
      <path id="Caminho_540" data-name="Caminho 540" d="M1790.193,821.14c-56.787,0-90.567-8.048-185.86-5.844-68.317,1.58-111.288,3.43-157.023-5.716-5.425-1.085-7.241-22.1-7.241-22.1s.494-28.447,6.1-32.777c25.154-19.438,108.849-.252,147.494,0,50.826.33,145.969-17.532,197.422-4.955,9.348,2.285,5.716,29.346,5.716,29.346S1800.578,821.14,1790.193,821.14Z" transform="translate(15.628 12.852)" fill="#fcfae6"/>
      <path id="Caminho_541" data-name="Caminho 541" d="M1417.728,820.53c-35.544,0-33.543.254-67.463-5.844-42.114-7.571-114.336-6.1-147.154-5.717-3.564.042-4.532-22.1-4.532-22.1s-.888-29.79,3.816-32.777c19.813-12.576,67.275-6.349,91.464-6.1,31.814.331,89.183-5.716,124.425,1.143,6.166,1.2,1.727,38.113,1.727,38.113S1424.229,820.53,1417.728,820.53Z" transform="translate(11.676 12.862)" fill="#fcfae6"/>
      <path id="Caminho_542" data-name="Caminho 542" d="M1995.98,816.728c-34.555,7.622-144.127,4.425-179.382.508-4.573-.508,3.643-28.414,3.811-34.809.3-11.455-11.795-31.9-3.811-36.334,6.86-3.811,44.279,3.943,73.43,3.049,15.048-.461,99.462-7.717,103.157,5.336C1997,767.944,1997.089,816.483,1995.98,816.728Z" transform="translate(21.745 12.849)" fill="#fcfae6"/>
      <path id="Caminho_543" data-name="Caminho 543" d="M2198.177,918.637c-56.787,0-90.567-8.048-185.861-5.844-68.316,1.579-111.288,3.43-157.022-5.717-5.426-1.085-7.242-22.1-7.242-22.1s.494-28.446,6.1-32.777c25.154-19.437,108.849-.251,147.494,0,50.827.331,145.97-17.531,197.422-4.955,9.349,2.286,5.717,29.346,5.717,29.346S2208.562,918.637,2198.177,918.637Z" transform="translate(22.304 14.448)" fill="#fcfae6"/>
      <path id="Caminho_544" data-name="Caminho 544" d="M1825.712,918.025c-35.544,0-33.543.254-67.462-5.844-42.115-7.571-114.337-6.1-147.154-5.717-3.565.042-4.533-22.1-4.533-22.1s-.887-29.79,3.818-32.777c19.812-12.576,67.275-6.349,91.464-6.1,31.813.33,89.182-5.717,124.425,1.143,6.165,1.2,1.726,38.112,1.726,38.112S1832.213,918.025,1825.712,918.025Z" transform="translate(18.352 14.457)" fill="#fcfae6"/>
      <path id="Caminho_545" data-name="Caminho 545" d="M2403.964,914.224c-34.555,7.623-144.126,4.425-179.381.508-4.573-.508,3.642-28.413,3.812-34.809.3-11.455-11.8-31.9-3.812-36.334,6.861-3.81,44.279,3.943,73.429,3.049,15.048-.461,99.462-7.717,103.157,5.336C2404.98,865.441,2405.074,913.979,2403.964,914.224Z" transform="translate(28.421 14.444)" fill="#fcfae6"/>
      <path id="Caminho_546" data-name="Caminho 546" d="M2609.161,825.64c-56.787,0-90.567-8.048-185.86-5.844-68.316,1.58-111.288,3.43-157.022-5.716-5.427-1.086-7.241-22.106-7.241-22.106s.494-28.446,6.1-32.776c25.154-19.438,108.849-.252,147.494,0,50.826.33,145.969-17.532,197.42-4.955,9.349,2.285,5.717,29.346,5.717,29.346S2619.547,825.64,2609.161,825.64Z" transform="translate(29.029 12.926)" fill="#fcfae6"/>
      <path id="Caminho_547" data-name="Caminho 547" d="M2238.645,822.106c-35.544,0-33.542.254-67.462-5.843-42.115-7.572-114.337-6.1-147.154-5.717-3.565.042-4.533-22.1-4.533-22.1s-.887-29.791,3.817-32.777c19.813-12.578,67.275-6.349,91.464-6.1,31.813.331,89.183-5.717,124.425,1.143,6.165,1.2,1.726,38.113,1.726,38.113S2245.146,822.106,2238.645,822.106Z" transform="translate(25.108 12.888)" fill="#fcfae6"/>
      <path id="Caminho_548" data-name="Caminho 548" d="M2814.948,821.227c-34.554,7.623-144.126,4.425-179.381.508-4.574-.508,3.643-28.413,3.811-34.808.3-11.455-11.795-31.9-3.811-36.334,6.861-3.811,44.279,3.943,73.429,3.049,15.049-.461,99.463-7.717,103.157,5.336C2815.964,772.444,2816.058,820.983,2814.948,821.227Z" transform="translate(35.146 12.922)" fill="#fcfae6"/>
      <path id="Caminho_549" data-name="Caminho 549" d="M3026.147,1068.987c-35.544,0-33.543.253-67.463-5.844-42.114-7.572-114.336-6.1-147.154-5.717-3.564.042-4.532-22.1-4.532-22.1s-.888-29.79,3.816-32.777c19.813-12.578,67.275-6.349,91.463-6.1,31.814.331,89.183-5.717,124.425,1.143,6.166,1.2,1.727,38.113,1.727,38.113S3032.648,1068.987,3026.147,1068.987Z" transform="translate(37.994 16.927)" fill="#fcfae6"/>
      <path id="Caminho_550" data-name="Caminho 550" d="M2605.786,1021.383c-56.786,0-90.567-8.048-185.86-5.844-68.316,1.579-111.287,3.43-157.022-5.717-5.427-1.086-7.241-22.1-7.241-22.1s.494-28.446,6.1-32.777c25.154-19.437,108.85-.251,147.495,0,50.826.331,145.969-17.531,197.42-4.955,9.348,2.286,5.717,29.346,5.717,29.346S2616.172,1021.383,2605.786,1021.383Z" transform="translate(28.974 16.129)" fill="#fcfae6"/>
      <path id="Caminho_551" data-name="Caminho 551" d="M2233.322,1020.771c-35.544,0-33.543.254-67.463-5.844-42.114-7.571-114.337-6.1-147.154-5.716-3.565.041-4.532-22.106-4.532-22.106s-.888-29.79,3.816-32.776c19.813-12.578,67.275-6.35,91.464-6.1,31.813.33,89.183-5.717,124.425,1.143,6.166,1.2,1.726,38.112,1.726,38.112S2239.822,1020.771,2233.322,1020.771Z" transform="translate(25.021 16.139)" fill="#fcfae6"/>
      <path id="Caminho_552" data-name="Caminho 552" d="M2811.573,1016.97c-34.554,7.623-144.126,4.425-179.381.508-4.574-.508,3.643-28.413,3.811-34.809.3-11.454-11.795-31.9-3.811-36.333,6.86-3.811,44.279,3.943,73.429,3.048,15.049-.46,99.463-7.717,103.158,5.336C2812.59,968.187,2812.683,1016.725,2811.573,1016.97Z" transform="translate(35.09 16.125)" fill="#fcfae6"/>
      <path id="Caminho_553" data-name="Caminho 553" d="M3015.271,924.636c-56.787,0-90.567-8.048-185.86-5.843-68.317,1.579-111.288,3.429-157.022-5.717-5.426-1.085-7.241-22.1-7.241-22.1s.494-28.446,6.1-32.777c25.154-19.437,108.849-.252,147.494,0,50.826.33,145.97-17.532,197.421-4.955,9.348,2.285,5.717,29.346,5.717,29.346S3025.656,924.636,3015.271,924.636Z" transform="translate(35.674 14.546)" fill="#fcfae6"/>
      <path id="Caminho_554" data-name="Caminho 554" d="M2642.807,924.026c-35.544,0-33.543.254-67.463-5.844-42.114-7.571-114.336-6.1-147.153-5.717-3.565.042-4.533-22.1-4.533-22.1s-.888-29.79,3.818-32.777c19.812-12.577,67.275-6.349,91.463-6.1,31.813.33,89.182-5.717,124.425,1.142,6.166,1.2,1.726,38.113,1.726,38.113S2649.307,924.026,2642.807,924.026Z" transform="translate(31.722 14.555)" fill="#fcfae6"/>
      <path id="Caminho_555" data-name="Caminho 555" d="M1258.088,519.652c-56.787,0-90.567-8.048-185.86-5.844-68.316,1.579-111.288,3.43-157.022-5.717-5.426-1.085-7.242-22.1-7.242-22.1s.494-28.446,6.1-32.777c25.154-19.437,108.849-.251,147.494,0,50.827.331,145.97-17.531,197.422-4.955,9.347,2.286,5.717,29.346,5.717,29.346S1268.473,519.652,1258.088,519.652Z" transform="translate(6.921 7.919)" fill="#fcfae6"/>
      <path id="Caminho_556" data-name="Caminho 556" d="M885.623,519.04c-35.544,0-33.543.254-67.462-5.844-42.115-7.571-114.337-6.1-147.154-5.716-3.565.041-4.533-22.106-4.533-22.106s-.888-29.79,3.817-32.776c19.812-12.577,67.275-6.35,91.464-6.1,31.813.33,89.182-5.717,124.425,1.143,6.165,1.2,1.726,38.112,1.726,38.112S892.124,519.04,885.623,519.04Z" transform="translate(2.969 7.929)" fill="#fcfae6"/>
      <path id="Caminho_557" data-name="Caminho 557" d="M1463.875,515.239c-34.555,7.623-144.126,4.425-179.381.508-4.574-.508,3.642-28.413,3.811-34.809.3-11.454-11.8-31.9-3.811-36.333,6.859-3.811,44.279,3.942,73.429,3.048,15.048-.46,99.462-7.717,103.157,5.336C1464.891,466.456,1464.985,514.994,1463.875,515.239Z" transform="translate(13.038 7.915)" fill="#fcfae6"/>
      <path id="Caminho_558" data-name="Caminho 558" d="M850.853,422.9c-56.786,0-90.567-8.048-185.86-5.843-68.316,1.579-111.287,3.429-157.022-5.717-5.425-1.085-7.241-22.1-7.241-22.1s.494-28.446,6.1-32.777c25.154-19.437,108.849-.252,147.495,0,50.826.33,145.969-17.531,197.42-4.955,9.349,2.285,5.717,29.346,5.717,29.346S861.239,422.9,850.853,422.9Z" transform="translate(0.258 6.336)" fill="#fcfae6"/>
      <path id="Caminho_559" data-name="Caminho 559" d="M1056.64,418.493c-34.554,7.622-144.126,4.425-179.381.508-4.574-.508,3.643-28.414,3.811-34.809.3-11.455-11.795-31.9-3.811-36.334,6.86-3.811,44.279,3.942,73.429,3.049,15.049-.461,99.463-7.717,103.158,5.336C1057.656,369.709,1057.75,418.248,1056.64,418.493Z" transform="translate(6.374 6.332)" fill="#fcfae6"/>
      <path id="Caminho_560" data-name="Caminho 560" d="M1670.947,422.9c-56.787,0-90.567-8.048-185.86-5.843-68.316,1.579-111.288,3.429-157.022-5.717-5.426-1.085-7.242-22.1-7.242-22.1s.494-28.446,6.1-32.777c25.154-19.437,108.849-.252,147.495,0,50.826.33,145.969-17.531,197.421-4.955,9.348,2.285,5.717,29.346,5.717,29.346S1681.332,422.9,1670.947,422.9Z" transform="translate(13.677 6.336)" fill="#fcfae6"/>
      <path id="Caminho_561" data-name="Caminho 561" d="M1298.482,422.294c-35.544,0-33.542.254-67.462-5.844-42.115-7.571-114.337-6.1-147.154-5.717-3.565.042-4.533-22.1-4.533-22.1s-.887-29.79,3.818-32.777c19.813-12.576,67.275-6.349,91.464-6.1,31.813.33,89.183-5.717,124.425,1.142,6.165,1.2,1.726,38.113,1.726,38.113S1304.983,422.294,1298.482,422.294Z" transform="translate(9.724 6.346)" fill="#fcfae6"/>
      <path id="Caminho_562" data-name="Caminho 562" d="M1876.734,418.493c-34.555,7.622-144.126,4.425-179.381.508-4.574-.508,3.642-28.414,3.811-34.809.3-11.455-11.795-31.9-3.811-36.334,6.86-3.811,44.279,3.942,73.429,3.049,15.049-.461,99.463-7.717,103.157,5.336C1877.75,369.709,1877.844,418.248,1876.734,418.493Z" transform="translate(19.794 6.332)" fill="#fcfae6"/>
      <path id="Caminho_563" data-name="Caminho 563" d="M2078.932,520.4c-56.787,0-90.567-8.048-185.86-5.844-68.317,1.579-111.288,3.43-157.023-5.717-5.425-1.085-7.241-22.1-7.241-22.1s.494-28.446,6.1-32.777c25.155-19.437,108.849-.251,147.495,0,50.826.331,145.969-17.531,197.421-4.955,9.347,2.286,5.716,29.346,5.716,29.346S2089.317,520.4,2078.932,520.4Z" transform="translate(20.353 7.931)" fill="#fcfae6"/>
      <path id="Caminho_564" data-name="Caminho 564" d="M1706.467,519.79c-35.544,0-33.543.254-67.463-5.844-42.114-7.571-114.336-6.1-147.154-5.716-3.564.041-4.532-22.106-4.532-22.106s-.888-29.79,3.816-32.776c19.813-12.578,67.275-6.35,91.464-6.1,31.814.33,89.183-5.717,124.425,1.143,6.166,1.2,1.727,38.112,1.727,38.112S1712.968,519.79,1706.467,519.79Z" transform="translate(16.4 7.941)" fill="#fcfae6"/>
      <path id="Caminho_565" data-name="Caminho 565" d="M2284.719,515.989c-34.555,7.623-144.127,4.425-179.382.508-4.574-.508,3.643-28.413,3.811-34.809.3-11.454-11.795-31.9-3.811-36.333,6.86-3.811,44.279,3.942,73.43,3.048,15.048-.46,99.462-7.717,103.157,5.336C2285.735,467.206,2285.828,515.744,2284.719,515.989Z" transform="translate(26.47 7.928)" fill="#fcfae6"/>
      <path id="Caminho_566" data-name="Caminho 566" d="M2489.916,427.4c-56.787,0-90.567-8.048-185.86-5.844-68.316,1.58-111.288,3.43-157.022-5.716-5.427-1.085-7.242-22.106-7.242-22.106s.494-28.446,6.1-32.776c25.154-19.438,108.849-.252,147.494,0,50.827.33,145.97-17.532,197.422-4.955,9.347,2.285,5.717,29.346,5.717,29.346S2500.3,427.4,2489.916,427.4Z" transform="translate(27.078 6.41)" fill="#fcfae6"/>
      <path id="Caminho_567" data-name="Caminho 567" d="M2117.451,426.794c-35.544,0-33.543.254-67.462-5.844-42.115-7.571-114.337-6.1-147.154-5.717-3.565.042-4.533-22.1-4.533-22.1s-.888-29.79,3.818-32.777c19.812-12.576,67.275-6.349,91.464-6.1,31.813.331,89.182-5.716,124.425,1.143,6.165,1.2,1.726,38.113,1.726,38.113S2123.952,426.794,2117.451,426.794Z" transform="translate(23.125 6.419)" fill="#fcfae6"/>
      <path id="Caminho_568" data-name="Caminho 568" d="M2695.7,422.992c-34.555,7.623-144.127,4.426-179.381.508-4.574-.508,3.642-28.413,3.81-34.808.3-11.455-11.795-31.9-3.81-36.334,6.859-3.811,44.279,3.942,73.429,3.049,15.048-.461,99.462-7.717,103.157,5.336C2696.719,374.209,2696.813,422.748,2695.7,422.992Z" transform="translate(33.195 6.406)" fill="#fcfae6"/>
      <path id="Caminho_569" data-name="Caminho 569" d="M2905.025,526.4c-56.787,0-90.567-8.047-185.86-5.843-68.316,1.579-111.288,3.43-157.022-5.717-5.426-1.085-7.242-22.1-7.242-22.1s.494-28.446,6.1-32.777c25.154-19.437,108.85-.251,147.494,0,50.827.33,145.97-17.531,197.421-4.955,9.348,2.285,5.717,29.346,5.717,29.346S2915.41,526.4,2905.025,526.4Z" transform="translate(33.871 8.029)" fill="#fcfae6"/>
      <path id="Caminho_570" data-name="Caminho 570" d="M2532.561,525.791c-35.544,0-33.543.254-67.462-5.844-42.115-7.571-114.337-6.1-147.154-5.717-3.565.042-4.533-22.1-4.533-22.1s-.887-29.79,3.818-32.777c19.812-12.576,67.275-6.349,91.463-6.1,31.813.33,89.182-5.717,124.425,1.143,6.165,1.2,1.726,38.112,1.726,38.112S2539.061,525.791,2532.561,525.791Z" transform="translate(29.918 8.039)" fill="#fcfae6"/>
      <path id="Caminho_571" data-name="Caminho 571" d="M3086.918,570.2c-34.554,7.623-144.127,4.425-179.381.508-4.574-.508,3.643-28.413,3.811-34.809.3-11.454-11.795-31.9-3.811-36.333,6.86-3.811,44.279,3.942,73.429,3.049,15.049-.461,99.463-7.717,103.157,5.335C3087.935,521.42,3088.028,569.958,3086.918,570.2Z" transform="translate(39.596 8.815)" fill="#fcfae6"/>
      <path id="Caminho_572" data-name="Caminho 572" d="M3290.616,477.869c-56.787,0-90.567-8.047-185.86-5.843-68.317,1.579-111.288,3.43-157.022-5.717-5.426-1.085-7.242-22.1-7.242-22.1s.494-28.446,6.1-32.777c25.154-19.437,108.85-.251,147.494,0,50.826.33,145.97-17.531,197.421-4.955,9.347,2.285,5.716,29.346,5.716,29.346S3301,477.869,3290.616,477.869Z" transform="translate(40.18 7.235)" fill="#fcfae6"/>
      <path id="Caminho_573" data-name="Caminho 573" d="M2942.044,429.044c-35.543,0-33.542.254-67.462-5.844-42.114-7.571-114.337-6.1-147.154-5.717-3.565.042-4.532-22.1-4.532-22.1s-.888-29.79,3.816-32.777c19.813-12.576,67.275-6.349,91.464-6.1,31.813.331,89.183-5.716,124.425,1.143,6.166,1.2,1.726,38.113,1.726,38.113S2948.545,429.044,2942.044,429.044Z" transform="translate(36.618 6.456)" fill="#fcfae6"/>
      <path id="Caminho_574" data-name="Caminho 574" d="M1651.823,321.659c-56.787,0-90.567-8.048-185.86-5.844-68.316,1.58-111.288,3.43-157.022-5.716-5.426-1.085-7.242-22.106-7.242-22.106s.494-28.446,6.1-32.776c25.154-19.438,108.849-.252,147.494,0,50.827.33,145.97-17.532,197.422-4.955,9.348,2.285,5.717,29.346,5.717,29.346S1662.208,321.659,1651.823,321.659Z" transform="translate(13.364 4.679)" fill="#fcfae6"/>
      <path id="Caminho_575" data-name="Caminho 575" d="M1279.358,321.048c-35.544,0-33.543.254-67.462-5.844-42.115-7.571-114.337-6.1-147.154-5.717-3.565.042-4.533-22.1-4.533-22.1s-.888-29.79,3.817-32.777c19.812-12.576,67.275-6.349,91.464-6.1,31.813.331,89.182-5.716,124.425,1.143,6.165,1.2,1.726,38.113,1.726,38.113S1285.859,321.048,1279.358,321.048Z" transform="translate(9.411 4.689)" fill="#fcfae6"/>
      <path id="Caminho_576" data-name="Caminho 576" d="M1857.61,317.246c-34.555,7.623-144.127,4.426-179.381.508-4.574-.508,3.641-28.413,3.81-34.808.3-11.455-11.795-31.9-3.81-36.334,6.859-3.811,44.279,3.942,73.429,3.049,15.048-.461,99.462-7.717,103.157,5.336C1858.626,268.463,1858.72,317,1857.61,317.246Z" transform="translate(19.481 4.676)" fill="#fcfae6"/>
      <path id="Caminho_577" data-name="Caminho 577" d="M835.1,321.659c-56.787,0-90.567-8.048-185.86-5.844-68.316,1.58-111.288,3.43-157.022-5.716-5.426-1.085-7.242-22.106-7.242-22.106s.494-28.446,6.1-32.776c25.154-19.438,108.849-.252,147.494,0,50.827.33,145.97-17.532,197.421-4.955,9.349,2.285,5.717,29.346,5.717,29.346S845.489,321.659,835.1,321.659Z" transform="translate(0 4.679)" fill="#fcfae6"/>
      <path id="Caminho_578" data-name="Caminho 578" d="M1040.891,317.246c-34.555,7.623-144.126,4.426-179.381.508-4.574-.508,3.642-28.413,3.811-34.808.3-11.455-11.8-31.9-3.811-36.334,6.86-3.811,44.279,3.942,73.429,3.049,15.049-.461,99.462-7.717,103.157,5.336C1041.907,268.463,1042,317,1040.891,317.246Z" transform="translate(6.117 4.676)" fill="#fcfae6"/>
      <path id="Caminho_579" data-name="Caminho 579" d="M1244.588,224.913c-56.786,0-90.567-8.048-185.86-5.844-68.316,1.579-111.287,3.43-157.022-5.717-5.426-1.084-7.241-22.1-7.241-22.1s.494-28.446,6.1-32.777c25.154-19.437,108.849-.251,147.495,0,50.826.331,145.969-17.531,197.421-4.954,9.349,2.285,5.717,29.345,5.717,29.345S1254.974,224.913,1244.588,224.913Z" transform="translate(6.7 3.096)" fill="#fcfae6"/>
      <path id="Caminho_580" data-name="Caminho 580" d="M872.124,224.3c-35.544,0-33.543.254-67.463-5.843-42.114-7.572-114.337-6.1-147.154-5.717-3.565.042-4.532-22.1-4.532-22.1s-.888-29.791,3.816-32.777c19.813-12.577,67.275-6.349,91.464-6.1,31.813.33,89.183-5.717,124.425,1.143,6.166,1.2,1.726,38.113,1.726,38.113S878.624,224.3,872.124,224.3Z" transform="translate(2.748 3.106)" fill="#fcfae6"/>
      <path id="Caminho_581" data-name="Caminho 581" d="M1450.375,220.5c-34.554,7.623-144.126,4.425-179.381.508-4.574-.508,3.643-28.413,3.811-34.809.3-11.454-11.795-31.9-3.811-36.333,6.86-3.811,44.279,3.942,73.429,3.049,15.049-.461,99.463-7.717,103.158,5.335C1451.391,171.717,1451.485,220.255,1450.375,220.5Z" transform="translate(12.817 3.093)" fill="#fcfae6"/>
      <path id="Caminho_582" data-name="Caminho 582" d="M2064.682,224.913c-56.787,0-90.567-8.048-185.86-5.844-68.316,1.579-111.288,3.43-157.022-5.717-5.426-1.084-7.242-22.1-7.242-22.1s.494-28.446,6.1-32.777c25.154-19.437,108.849-.251,147.494,0,50.827.331,145.97-17.531,197.421-4.954,9.348,2.285,5.717,29.345,5.717,29.345S2075.067,224.913,2064.682,224.913Z" transform="translate(20.12 3.096)" fill="#fcfae6"/>
      <path id="Caminho_583" data-name="Caminho 583" d="M1692.217,224.3c-35.544,0-33.542.254-67.462-5.843-42.115-7.572-114.337-6.1-147.154-5.717-3.565.042-4.533-22.1-4.533-22.1s-.887-29.791,3.818-32.777c19.813-12.577,67.275-6.349,91.464-6.1,31.813.33,89.183-5.717,124.425,1.143,6.165,1.2,1.726,38.113,1.726,38.113S1698.718,224.3,1692.217,224.3Z" transform="translate(16.167 3.106)" fill="#fcfae6"/>
      <path id="Caminho_584" data-name="Caminho 584" d="M2270.469,220.5c-34.555,7.623-144.126,4.425-179.381.508-4.574-.508,3.642-28.413,3.811-34.809.3-11.454-11.795-31.9-3.811-36.333,6.86-3.811,44.279,3.942,73.429,3.049,15.049-.461,99.462-7.717,103.157,5.335C2271.485,171.717,2271.579,220.255,2270.469,220.5Z" transform="translate(26.236 3.093)" fill="#fcfae6"/>
      <path id="Caminho_585" data-name="Caminho 585" d="M2472.667,322.409c-56.787,0-90.568-8.048-185.862-5.844-68.316,1.58-111.286,3.43-157.022-5.716-5.425-1.085-7.241-22.106-7.241-22.106s.494-28.446,6.1-32.776c25.154-19.438,108.849-.252,147.495,0,50.826.33,145.969-17.532,197.42-4.955,9.348,2.285,5.717,29.346,5.717,29.346S2483.052,322.409,2472.667,322.409Z" transform="translate(26.796 4.691)" fill="#fcfae6"/>
      <path id="Caminho_586" data-name="Caminho 586" d="M2100.2,321.8c-35.544,0-33.543.254-67.463-5.844-42.114-7.571-114.337-6.1-147.154-5.717-3.565.042-4.532-22.1-4.532-22.1s-.888-29.79,3.816-32.777c19.813-12.576,67.275-6.349,91.464-6.1,31.813.331,89.183-5.716,124.425,1.143,6.167,1.2,1.727,38.113,1.727,38.113S2106.7,321.8,2100.2,321.8Z" transform="translate(22.843 4.701)" fill="#fcfae6"/>
      <path id="Caminho_587" data-name="Caminho 587" d="M2678.454,318c-34.555,7.623-144.127,4.426-179.382.508-4.574-.508,3.643-28.413,3.811-34.808.3-11.455-11.795-31.9-3.811-36.334,6.86-3.811,44.279,3.942,73.43,3.049,15.048-.461,99.462-7.717,103.157,5.336C2679.47,269.213,2679.563,317.752,2678.454,318Z" transform="translate(32.912 4.688)" fill="#fcfae6"/>
      <path id="Caminho_588" data-name="Caminho 588" d="M2883.651,229.413c-56.787,0-90.567-8.048-185.86-5.844-68.317,1.579-111.288,3.43-157.022-5.717-5.426-1.085-7.241-22.1-7.241-22.1s.494-28.446,6.1-32.777c25.154-19.437,108.849-.251,147.494,0,50.827.331,145.97-17.531,197.421-4.955,9.348,2.286,5.717,29.346,5.717,29.346S2894.036,229.413,2883.651,229.413Z" transform="translate(33.521 3.17)" fill="#fcfae6"/>
      <path id="Caminho_589" data-name="Caminho 589" d="M2511.187,228.8c-35.544,0-33.543.254-67.463-5.844-42.114-7.571-114.336-6.1-147.153-5.716-3.565.041-4.533-22.106-4.533-22.106s-.888-29.79,3.817-32.776c19.812-12.577,67.275-6.35,91.464-6.1,31.813.33,89.182-5.717,124.425,1.143,6.165,1.2,1.726,38.112,1.726,38.112S2517.687,228.8,2511.187,228.8Z" transform="translate(29.568 3.179)" fill="#fcfae6"/>
      <path id="Caminho_590" data-name="Caminho 590" d="M3065.544,273.214c-34.555,7.623-144.126,4.425-179.381.508-4.574-.508,3.642-28.413,3.811-34.808.3-11.455-11.795-31.9-3.811-36.334,6.86-3.811,44.279,3.942,73.429,3.049,15.05-.461,99.463-7.717,103.157,5.336C3066.56,224.431,3066.654,272.97,3065.544,273.214Z" transform="translate(39.246 3.955)" fill="#fcfae6"/>
      <path id="Caminho_591" data-name="Caminho 591" d="M1690.071,132.666c-56.786,0-90.567-8.048-185.86-5.843-68.316,1.579-111.287,3.429-157.022-5.717-5.426-1.085-7.241-22.1-7.241-22.1s.493-28.446,6.1-32.777c25.154-19.437,108.849-.252,147.495,0,50.826.33,145.969-17.531,197.42-4.955,9.349,2.285,5.717,29.346,5.717,29.346S1700.457,132.666,1690.071,132.666Z" transform="translate(13.99 1.587)" fill="#fcfae6"/>
      <path id="Caminho_592" data-name="Caminho 592" d="M1317.607,132.055c-35.544,0-33.543.254-67.463-5.844-42.114-7.571-114.337-6.1-147.154-5.717-3.566.042-4.532-22.1-4.532-22.1s-.888-29.79,3.816-32.777c19.813-12.576,67.275-6.349,91.464-6.1,31.813.33,89.183-5.717,124.425,1.142,6.166,1.2,1.726,38.113,1.726,38.113S1324.107,132.055,1317.607,132.055Z" transform="translate(10.037 1.596)" fill="#fcfae6"/>
      <path id="Caminho_593" data-name="Caminho 593" d="M1895.858,128.254c-34.554,7.622-144.126,4.425-179.381.508-4.574-.508,3.643-28.414,3.811-34.809.3-11.455-11.795-31.9-3.811-36.334,6.86-3.811,44.279,3.942,73.429,3.049,15.049-.461,99.463-7.717,103.158,5.336C1896.874,79.47,1896.968,128.009,1895.858,128.254Z" transform="translate(20.107 1.583)" fill="#fcfae6"/>
      <path id="Caminho_594" data-name="Caminho 594" d="M873.353,132.666c-56.787,0-90.567-8.048-185.86-5.843-68.317,1.579-111.288,3.429-157.023-5.717-5.425-1.085-7.241-22.1-7.241-22.1s.494-28.446,6.1-32.777c25.154-19.437,108.849-.252,147.494,0,50.826.33,145.97-17.531,197.421-4.955,9.347,2.285,5.716,29.346,5.716,29.346S883.738,132.666,873.353,132.666Z" transform="translate(0.626 1.587)" fill="#fcfae6"/>
      <path id="Caminho_595" data-name="Caminho 595" d="M1079.14,128.254c-34.555,7.622-144.127,4.425-179.382.508-4.573-.508,3.643-28.414,3.811-34.809.3-11.455-11.795-31.9-3.811-36.334,6.86-3.811,44.279,3.942,73.43,3.049,15.048-.461,99.462-7.717,103.157,5.336C1080.156,79.47,1080.249,128.009,1079.14,128.254Z" transform="translate(6.742 1.583)" fill="#fcfae6"/>
      <path id="Caminho_596" data-name="Caminho 596" d="M1282.837,35.92c-56.787,0-90.567-8.048-185.86-5.844-68.316,1.58-111.288,3.43-157.022-5.716-5.426-1.085-7.242-22.106-7.242-22.106s.494-28.446,6.1-32.776c25.154-19.438,108.85-.252,147.494,0,50.827.33,145.97-17.532,197.421-4.955,9.349,2.285,5.717,29.346,5.717,29.346S1293.222,35.92,1282.837,35.92Z" transform="translate(7.326 0.004)" fill="#fcfae6"/>
      <path id="Caminho_597" data-name="Caminho 597" d="M910.372,35.309c-35.544,0-33.543.254-67.462-5.844-42.115-7.572-114.337-6.1-147.154-5.717-3.565.042-4.533-22.1-4.533-22.1s-.887-29.79,3.818-32.777c19.812-12.577,67.275-6.349,91.464-6.1,31.813.331,89.182-5.717,124.425,1.143,6.165,1.2,1.726,38.113,1.726,38.113S916.873,35.309,910.372,35.309Z" transform="translate(3.374 0.013)" fill="#fcfae6"/>
      <path id="Caminho_598" data-name="Caminho 598" d="M1488.624,31.507c-34.555,7.623-144.126,4.425-179.381.508-4.574-.508,3.642-28.413,3.811-34.808.3-11.455-11.8-31.9-3.811-36.334,6.859-3.811,44.279,3.942,73.429,3.049,15.048-.461,99.462-7.717,103.157,5.336C1489.64-17.276,1489.734,31.262,1488.624,31.507Z" transform="translate(13.443 0)" fill="#fcfae6"/>
      <path id="Caminho_599" data-name="Caminho 599" d="M2102.931,35.92c-56.787,0-90.567-8.048-185.86-5.844-68.317,1.58-111.288,3.43-157.022-5.716-5.426-1.085-7.242-22.106-7.242-22.106s.494-28.446,6.1-32.776c25.154-19.438,108.849-.252,147.494,0,50.826.33,145.97-17.532,197.421-4.955,9.347,2.285,5.716,29.346,5.716,29.346S2113.316,35.92,2102.931,35.92Z" transform="translate(20.746 0.004)" fill="#fcfae6"/>
      <path id="Caminho_600" data-name="Caminho 600" d="M1730.466,35.309c-35.544,0-33.543.254-67.463-5.844-42.114-7.572-114.336-6.1-147.154-5.717-3.564.042-4.532-22.1-4.532-22.1s-.888-29.79,3.816-32.777c19.813-12.577,67.275-6.349,91.464-6.1,31.814.331,89.183-5.717,124.425,1.143,6.166,1.2,1.727,38.113,1.727,38.113S1736.967,35.309,1730.466,35.309Z" transform="translate(16.793 0.013)" fill="#fcfae6"/>
      <path id="Caminho_601" data-name="Caminho 601" d="M2308.718,31.507c-34.555,7.623-144.127,4.425-179.382.508-4.573-.508,3.643-28.413,3.811-34.808.3-11.455-11.795-31.9-3.811-36.334,6.86-3.811,44.279,3.942,73.43,3.049,15.048-.461,99.462-7.717,103.157,5.336C2309.734-17.276,2309.827,31.262,2308.718,31.507Z" transform="translate(26.862 0)" fill="#fcfae6"/>
      <path id="Caminho_602" data-name="Caminho 602" d="M2510.915,133.416c-56.787,0-90.567-8.048-185.861-5.843-68.316,1.579-111.288,3.429-157.022-5.717-5.427-1.085-7.241-22.1-7.241-22.1s.494-28.446,6.1-32.777c25.154-19.437,108.849-.252,147.493,0,50.827.33,145.97-17.531,197.422-4.955,9.349,2.285,5.717,29.346,5.717,29.346S2521.3,133.416,2510.915,133.416Z" transform="translate(27.421 1.599)" fill="#fcfae6"/>
      <path id="Caminho_603" data-name="Caminho 603" d="M2138.45,132.805c-35.544,0-33.543.254-67.462-5.844-42.115-7.571-114.337-6.1-147.154-5.717-3.565.042-4.533-22.1-4.533-22.1s-.887-29.79,3.818-32.777c19.813-12.576,67.275-6.349,91.464-6.1,31.813.33,89.182-5.717,124.425,1.142,6.165,1.2,1.726,38.113,1.726,38.113S2144.951,132.805,2138.45,132.805Z" transform="translate(23.469 1.609)" fill="#fcfae6"/>
      <path id="Caminho_604" data-name="Caminho 604" d="M2716.7,129c-34.555,7.622-144.126,4.425-179.381.508-4.573-.508,3.642-28.414,3.812-34.809.3-11.455-11.8-31.9-3.812-36.334,6.861-3.811,44.279,3.942,73.429,3.049,15.048-.461,99.462-7.717,103.157,5.336C2717.719,80.22,2717.812,128.759,2716.7,129Z" transform="translate(33.538 1.595)" fill="#fcfae6"/>
      <path id="Caminho_605" data-name="Caminho 605" d="M2921.9,40.42c-56.787,0-90.567-8.048-185.86-5.844-68.316,1.579-111.287,3.43-157.022-5.717-5.426-1.084-7.24-22.1-7.24-22.1s.493-28.446,6.1-32.777c25.154-19.437,108.85-.251,147.495,0,50.826.331,145.969-17.531,197.42-4.954,9.348,2.285,5.717,29.345,5.717,29.345S2932.285,40.42,2921.9,40.42Z" transform="translate(34.146 0.077)" fill="#fcfae6"/>
      <path id="Caminho_606" data-name="Caminho 606" d="M2549.435,39.808c-35.543,0-33.542.254-67.462-5.843-42.114-7.572-114.337-6.1-147.154-5.717-3.565.042-4.532-22.1-4.532-22.1s-.888-29.791,3.817-32.777c19.813-12.577,67.275-6.349,91.463-6.1,31.813.33,89.183-5.717,124.425,1.143,6.167,1.2,1.726,38.113,1.726,38.113S2555.935,39.808,2549.435,39.808Z" transform="translate(30.194 0.087)" fill="#fcfae6"/>
      <path id="Caminho_607" data-name="Caminho 607" d="M3103.793,84.222c-34.555,7.622-144.128,4.425-179.382.507-4.573-.507,3.643-28.413,3.811-34.808.3-11.455-11.795-31.9-3.811-36.334,6.86-3.811,44.28,3.942,73.43,3.049,15.048-.461,99.462-7.717,103.157,5.336C3104.81,35.438,3104.9,83.977,3103.793,84.222Z" transform="translate(39.872 0.863)" fill="#fcfae6"/>
      <path id="Caminho_608" data-name="Caminho 608" d="M755.652,1106.967c-34.555,7.622-144.126,4.425-179.381.507-4.574-.507,3.642-28.414,3.811-34.808.3-11.455-11.8-31.9-3.811-36.334,6.859-3.811,44.279,3.943,73.429,3.049,15.048-.461,99.462-7.717,103.157,5.336C756.668,1058.183,756.762,1106.722,755.652,1106.967Z" transform="translate(1.449 17.598)" fill="#fcfae6"/>
      <path id="Caminho_609" data-name="Caminho 609" d="M962.724,1014.633c-56.787,0-90.567-8.048-185.86-5.844-68.316,1.579-111.288,3.43-157.022-5.717-5.426-1.085-7.242-22.1-7.242-22.1s.494-28.446,6.1-32.777c25.154-19.437,108.849-.251,147.495,0,50.826.331,145.969-17.531,197.42-4.954,9.349,2.285,5.717,29.346,5.717,29.346S973.11,1014.633,962.724,1014.633Z" transform="translate(2.088 16.018)" fill="#fcfae6"/>
      <path id="Caminho_610" data-name="Caminho 610" d="M1168.511,1010.22c-34.554,7.623-144.126,4.425-179.381.508-4.574-.508,3.642-28.414,3.811-34.809.3-11.454-11.795-31.9-3.811-36.333,6.86-3.811,44.279,3.943,73.429,3.049,15.049-.461,99.463-7.717,103.157,5.336C1169.527,961.437,1169.621,1009.975,1168.511,1010.22Z" transform="translate(8.205 16.015)" fill="#fcfae6"/>
      <path id="Caminho_611" data-name="Caminho 611" d="M1370.709,1112.129c-56.787,0-90.567-8.048-185.86-5.844-68.317,1.58-111.288,3.43-157.023-5.716-5.425-1.085-7.24-22.106-7.24-22.106s.494-28.446,6.1-32.776c25.154-19.438,108.849-.252,147.494,0,50.826.33,145.97-17.532,197.422-4.955,9.348,2.285,5.716,29.347,5.716,29.347S1381.094,1112.129,1370.709,1112.129Z" transform="translate(8.764 17.614)" fill="#fcfae6"/>
      <path id="Caminho_612" data-name="Caminho 612" d="M998.244,1111.518c-35.544,0-33.543.254-67.463-5.844-42.114-7.571-114.336-6.1-147.154-5.717-3.564.042-4.532-22.1-4.532-22.1s-.888-29.79,3.816-32.777c19.813-12.576,67.275-6.349,91.464-6.1,31.814.331,89.183-5.716,124.425,1.143,6.166,1.2,1.727,38.113,1.727,38.113S1004.745,1111.518,998.244,1111.518Z" transform="translate(4.812 17.623)" fill="#fcfae6"/>
      <path id="Caminho_613" data-name="Caminho 613" d="M1576.5,1107.716c-34.555,7.623-144.127,4.426-179.382.508-4.573-.508,3.643-28.413,3.811-34.808.3-11.455-11.795-31.9-3.811-36.334,6.86-3.811,44.279,3.943,73.43,3.049,15.048-.461,99.462-7.717,103.157,5.336C1577.512,1058.933,1577.6,1107.472,1576.5,1107.716Z" transform="translate(14.881 17.61)" fill="#fcfae6"/>
      <path id="Caminho_614" data-name="Caminho 614" d="M1781.693,1019.133c-56.787,0-90.567-8.048-185.86-5.844-68.316,1.579-111.288,3.43-157.022-5.717-5.426-1.085-7.242-22.1-7.242-22.1s.494-28.446,6.1-32.777c25.154-19.437,108.849-.251,147.494,0,50.827.331,145.97-17.531,197.422-4.955,9.348,2.286,5.717,29.346,5.717,29.346S1792.078,1019.133,1781.693,1019.133Z" transform="translate(15.489 16.092)" fill="#fcfae6"/>
      <path id="Caminho_615" data-name="Caminho 615" d="M1409.228,1018.521c-35.544,0-33.543.254-67.462-5.844-42.115-7.571-114.337-6.1-147.154-5.716-3.565.041-4.533-22.106-4.533-22.106s-.888-29.79,3.818-32.776c19.812-12.578,67.275-6.35,91.464-6.1,31.813.33,89.182-5.717,124.425,1.143,6.165,1.2,1.726,38.112,1.726,38.112S1415.729,1018.521,1409.228,1018.521Z" transform="translate(11.537 16.102)" fill="#fcfae6"/>
      <path id="Caminho_616" data-name="Caminho 616" d="M1987.48,1014.72c-34.555,7.623-144.126,4.425-179.381.508-4.574-.508,3.641-28.413,3.811-34.809.3-11.454-11.8-31.9-3.811-36.333,6.859-3.811,44.279,3.943,73.429,3.049,15.048-.461,99.462-7.718,103.157,5.335C1988.5,965.937,1988.59,1014.475,1987.48,1014.72Z" transform="translate(21.606 16.088)" fill="#fcfae6"/>
      <path id="Caminho_617" data-name="Caminho 617" d="M2584.643,1263.09c-56.787,0-90.567-8.048-185.86-5.844-68.317,1.579-111.288,3.43-157.022-5.717-5.427-1.085-7.242-22.1-7.242-22.1s.494-28.446,6.1-32.777c25.154-19.437,108.849-.251,147.494,0,50.826.331,145.97-17.531,197.422-4.955,9.347,2.286,5.716,29.347,5.716,29.347S2595.028,1263.09,2584.643,1263.09Z" transform="translate(28.628 20.084)" fill="#fcfae6"/>
      <path id="Caminho_618" data-name="Caminho 618" d="M2212.178,1262.479c-35.544,0-33.543.254-67.463-5.844-42.114-7.571-114.336-6.1-147.153-5.716-3.565.041-4.533-22.106-4.533-22.106s-.888-29.79,3.816-32.776c19.813-12.577,67.275-6.35,91.464-6.1,31.814.33,89.183-5.717,124.425,1.143,6.166,1.2,1.727,38.111,1.727,38.111S2218.679,1262.479,2212.178,1262.479Z" transform="translate(24.675 20.094)" fill="#fcfae6"/>
      <path id="Caminho_619" data-name="Caminho 619" d="M2790.43,1258.677c-34.555,7.623-144.127,4.425-179.382.508-4.573-.508,3.643-28.413,3.811-34.809.3-11.454-11.795-31.9-3.811-36.333,6.86-3.811,44.28,3.943,73.43,3.048,15.048-.46,99.462-7.717,103.157,5.336C2791.447,1209.894,2791.539,1258.432,2790.43,1258.677Z" transform="translate(34.744 20.08)" fill="#fcfae6"/>
      <path id="Caminho_620" data-name="Caminho 620" d="M1767.924,1263.09c-56.787,0-90.567-8.048-185.86-5.844-68.316,1.579-111.288,3.43-157.022-5.717-5.426-1.085-7.242-22.1-7.242-22.1s.494-28.446,6.1-32.777c25.154-19.437,108.849-.251,147.494,0,50.827.331,145.97-17.531,197.422-4.955,9.348,2.286,5.717,29.347,5.717,29.347S1778.309,1263.09,1767.924,1263.09Z" transform="translate(15.264 20.084)" fill="#fcfae6"/>
      <path id="Caminho_621" data-name="Caminho 621" d="M1398.382,1258.094c-35.544,0-33.543.254-67.462-5.843-42.115-7.572-114.337-6.1-147.154-5.717-3.565.042-4.533-22.1-4.533-22.1s-.887-29.791,3.817-32.776c19.813-12.578,67.275-6.349,91.464-6.1,31.813.33,89.183-5.717,124.425,1.143,6.165,1.2,1.726,38.113,1.726,38.113S1404.883,1258.094,1398.382,1258.094Z" transform="translate(11.359 20.022)" fill="#fcfae6"/>
      <path id="Caminho_622" data-name="Caminho 622" d="M1973.711,1258.677c-34.555,7.623-144.127,4.425-179.381.508-4.574-.508,3.642-28.413,3.81-34.809.3-11.454-11.795-31.9-3.81-36.333,6.859-3.811,44.279,3.943,73.429,3.048,15.048-.46,99.462-7.717,103.157,5.336C1974.728,1209.894,1974.821,1258.432,1973.711,1258.677Z" transform="translate(21.38 20.08)" fill="#fcfae6"/>
      <path id="Caminho_623" data-name="Caminho 623" d="M2201.3,1118.129c-56.787,0-90.567-8.047-185.86-5.844-68.316,1.581-111.288,3.43-157.022-5.717-5.426-1.084-7.242-22.1-7.242-22.1s.494-28.446,6.1-32.777c25.154-19.437,108.849-.251,147.494,0,50.827.331,145.97-17.531,197.422-4.954,9.347,2.285,5.717,29.346,5.717,29.346S2211.687,1118.129,2201.3,1118.129Z" transform="translate(22.355 17.712)" fill="#fcfae6"/>
      <path id="Caminho_624" data-name="Caminho 624" d="M1828.837,1117.517c-35.544,0-33.543.254-67.462-5.843-42.115-7.572-114.337-6.1-147.154-5.717-3.565.042-4.533-22.1-4.533-22.1s-.888-29.791,3.818-32.777c19.812-12.578,67.275-6.349,91.464-6.1,31.813.331,89.182-5.717,124.425,1.143,6.165,1.2,1.726,38.113,1.726,38.113S1835.338,1117.517,1828.837,1117.517Z" transform="translate(18.403 17.722)" fill="#fcfae6"/>
      <path id="Caminho_625" data-name="Caminho 625" d="M2407.089,1113.716c-34.555,7.623-144.126,4.425-179.381.508-4.574-.508,3.642-28.414,3.811-34.808.3-11.455-11.8-31.9-3.811-36.334,6.859-3.811,44.279,3.943,73.429,3.049,15.048-.461,99.462-7.717,103.157,5.336C2408.105,1064.933,2408.2,1113.471,2407.089,1113.716Z" transform="translate(28.472 17.708)" fill="#fcfae6"/>
      <path id="Caminho_626" data-name="Caminho 626" d="M3021.4,1118.129c-56.787,0-90.567-8.047-185.86-5.844-68.317,1.581-111.288,3.43-157.023-5.717-5.425-1.084-7.241-22.1-7.241-22.1s.494-28.446,6.1-32.777c25.155-19.437,108.849-.251,147.495,0,50.826.331,145.969-17.531,197.421-4.954,9.347,2.285,5.716,29.346,5.716,29.346S3031.781,1118.129,3021.4,1118.129Z" transform="translate(35.775 17.712)" fill="#fcfae6"/>
      <path id="Caminho_627" data-name="Caminho 627" d="M2648.931,1117.517c-35.544,0-33.543.254-67.463-5.843-42.114-7.572-114.335-6.1-147.154-5.717-3.564.042-4.532-22.1-4.532-22.1s-.888-29.791,3.816-32.777c19.813-12.578,67.275-6.349,91.464-6.1,31.814.331,89.183-5.717,124.425,1.143,6.167,1.2,1.727,38.113,1.727,38.113S2655.432,1117.517,2648.931,1117.517Z" transform="translate(31.822 17.722)" fill="#fcfae6"/>
      <path id="Caminho_628" data-name="Caminho 628" d="M3033.021,1263.229c-35.543,0-33.542.254-67.462-5.844-42.114-7.571-114.337-6.1-147.154-5.716-3.566.041-4.532-22.106-4.532-22.106s-.888-29.79,3.816-32.776c19.813-12.578,67.275-6.35,91.464-6.1,31.813.33,89.183-5.717,124.425,1.143,6.166,1.2,1.726,38.112,1.726,38.112S3039.522,1263.229,3033.021,1263.229Z" transform="translate(38.107 20.106)" fill="#fcfae6"/>
      <line id="Linha_15" data-name="Linha 15" x1="1851.449" transform="translate(846.019 990.165)" fill="none" stroke="#7e3048" stroke-miterlimit="10" stroke-width="0.477"/>
      <rect id="Retângulo_18" data-name="Retângulo 18" width="163.765" height="171.234" transform="translate(1986.905 220.745)" fill="#ef5a78" stroke="#1a3355" stroke-miterlimit="10" stroke-width="14.312"/>
      <rect id="Retângulo_19" data-name="Retângulo 19" width="276.719" height="171.234" transform="translate(1988.381 452.193)" fill="#ef5a78" stroke="#1a3355" stroke-miterlimit="10" stroke-width="14.312"/>
      <rect id="Retângulo_21" data-name="Retângulo 21" width="60.598" height="940.99" transform="translate(1114.593 114.414)" fill="#5c144f"/>
      <rect id="Retângulo_22" data-name="Retângulo 22" width="60.598" height="940.99" transform="translate(2347.297 114.414)" fill="#5c144f"/>
      <path id="Caminho_713" data-name="Caminho 713" d="M1164.094,1038.392l23.5-39H1163.2Z" transform="translate(11.098 17.011)" fill="#5c144f"/>
      <path id="Caminho_714" data-name="Caminho 714" d="M2377.8,1038.643l23.5-39h-24.392Z" transform="translate(30.958 17.015)" fill="#5c144f"/>
      <path id="Caminho_715" data-name="Caminho 715" d="M1045.314,1168.1" transform="translate(9.169 19.771)" fill="none" stroke="#282127" stroke-miterlimit="10" stroke-width="0.239"/>
      <g id="Grupo_57" data-name="Grupo 57" transform="translate(2000.573 257.487)">
        <path id="Caminho_716" data-name="Caminho 716" d="M2038.372,294.893c-3.289,8.985-6.585,18-8.764,27.314a32.357,32.357,0,0,0-1.115,10.261c.588,6.406,4.384,12.005,8.058,17.285,1.187-.422,1.681-1.8,2.01-3.017a148.286,148.286,0,0,0,4.79-48.781" transform="translate(-1975.317 -252.004)" fill="none" stroke="#243555" stroke-miterlimit="10" stroke-width="2.385"/>
        <path id="Caminho_717" data-name="Caminho 717" d="M2031.8,297.522c-7.858,6.95-29.686,4.377-15.814-7.029,3.609-2.968,11.218-9.1,16.229-8C2040.521,284.319,2035.766,294.018,2031.8,297.522Z" transform="translate(-1975.594 -252.209)" fill="none" stroke="#243555" stroke-miterlimit="10" stroke-width="2.385"/>
        <path id="Caminho_718" data-name="Caminho 718" d="M2062.556,283.466l6.823,3.518a11.175,11.175,0,0,1,3.083,2.052,5.689,5.689,0,0,1,1.248,5.6c-2.76,8.287-18.832,8.043-23.109,1.293-1.836-2.9-1.748-7.356-.928-10.564C2051.415,278.548,2057.549,280.885,2062.556,283.466Z" transform="translate(-1974.979 -252.233)" fill="none" stroke="#243555" stroke-miterlimit="10" stroke-width="2.385"/>
        <path id="Caminho_719" data-name="Caminho 719" d="M2025.888,339.581a10.728,10.728,0,0,1,18.7-3.266" transform="translate(-1975.359 -251.394)" fill="none" stroke="#243555" stroke-miterlimit="10" stroke-width="2.385"/>
        <path id="Caminho_720" data-name="Caminho 720" d="M2051.273,331.417a160.25,160.25,0,0,1,25.4-2.63" transform="translate(-1974.943 -251.45)" fill="none" stroke="#243555" stroke-miterlimit="10" stroke-width="2.385"/>
        <path id="Caminho_721" data-name="Caminho 721" d="M2052.442,336.077a90.454,90.454,0,0,0,15.365,5.411" transform="translate(-1974.924 -251.33)" fill="none" stroke="#243555" stroke-miterlimit="10" stroke-width="2.385"/>
        <path id="Caminho_722" data-name="Caminho 722" d="M2018.947,332.392a24.7,24.7,0,0,0-11.505-3.193" transform="translate(-1975.66 -251.443)" fill="none" stroke="#243555" stroke-miterlimit="10" stroke-width="2.385"/>
        <path id="Caminho_723" data-name="Caminho 723" d="M2020.1,338.483a151.763,151.763,0,0,1-33.089,4.266" transform="translate(-1975.995 -251.291)" fill="none" stroke="#243555" stroke-miterlimit="10" stroke-width="2.385"/>
        <path id="Caminho_724" data-name="Caminho 724" d="M2022.881,293.009a1.429,1.429,0,0,0,1.558,1.306,3.415,3.415,0,0,0-.276-2.146c-.393-.62-1.422-.864-1.847-.264-.651.922.8,1.869,1.259,2.9a4.356,4.356,0,0,0,.081-2.508.581.581,0,0,0-.818.072,1.345,1.345,0,0,0,.492,1.412" transform="translate(-1975.42 -252.059)" fill="none" stroke="#243555" stroke-miterlimit="10" stroke-width="2.385"/>
        <path id="Caminho_725" data-name="Caminho 725" d="M2061.226,292.984a2.627,2.627,0,0,0,1.613,1.219c-.085-.5-.261-1.1-.754-1.216s-.754.883-.251.814c-.976-.923-2.471-.943-3.813-.909-.795.02-1.817.229-1.935,1.015-.112.751.728,1.256,1.431,1.541l3.235,1.31.115-4.621c.512.09.493,1.019-.023,1.089" transform="translate(-1974.865 -252.049)" fill="none" stroke="#243555" stroke-miterlimit="10" stroke-width="2.385"/>
        <path id="Caminho_726" data-name="Caminho 726" d="M2025.358,270.794c-2.356-6.941-5.515-14.732-12.423-17.181A20.882,20.882,0,0,0,2006,252.7a71.822,71.822,0,0,0-12.348,1.033,29.5,29.5,0,0,0-10.876,3.7c-3.26,2.057-5.92,5.324-6.5,9.134a7.756,7.756,0,0,0,.242,3.634c.827,2.441,3.085,4.077,5.282,5.424a71.326,71.326,0,0,0,28.406,9.945" transform="translate(-1976.172 -252.695)" fill="none" stroke="#243555" stroke-miterlimit="10" stroke-width="2.385"/>
        <path id="Caminho_727" data-name="Caminho 727" d="M2057.352,269.017c7.914-10.1,21.516-13.957,34.331-14.647,4.527-.244,9.265-.124,13.292,1.958s7.1,6.638,6.115,11.063c-.974,4.4-5.406,7.147-9.727,8.412a60.746,60.746,0,0,1-11.66,1.821c-7.425.67-15.583,1.153-21.624-3.217" transform="translate(-1974.844 -252.669)" fill="none" stroke="#243555" stroke-miterlimit="10" stroke-width="2.385"/>
        <path id="Caminho_728" data-name="Caminho 728" d="M2033.9,270.29a15.674,15.674,0,0,1,9.23-1.478" transform="translate(-1975.228 -252.434)" fill="none" stroke="#243555" stroke-miterlimit="10" stroke-width="2.385"/>
      </g>
      <g id="Grupo_58" data-name="Grupo 58" transform="translate(2014.863 485.094)">
        <path id="Caminho_729" data-name="Caminho 729" d="M1994.338,490.681v-5.564h-3.885v-3.481l4.091-.182.589-4.818h3.781v4.818h6.5v3.663h-6.5v5.5c0,2.4.991,3.3,3.24,3.3a8.944,8.944,0,0,0,3.044-.561l.828,3.38a16.529,16.529,0,0,1-5.038.853C1996.082,497.592,1994.338,494.814,1994.338,490.681Z" transform="translate(-1990.229 -476.637)" fill="#fff"/>
        <path id="Caminho_730" data-name="Caminho 730" d="M2009.171,492.771c0-3.532,2.855-5.329,10.14-5.78-.16-1.41-1.2-2.272-3.269-2.272a10.526,10.526,0,0,0-4.7,1.475l-1.632-3.061a14.428,14.428,0,0,1,7.215-2.131c4.335,0,6.961,2.3,6.961,7.132v9.006h-3.736l-.33-1.776h-.116a9.308,9.308,0,0,1-5.465,2.157A4.711,4.711,0,0,1,2009.171,492.771Zm10.14-.376v-2.581c-4.535.233-5.753,1.238-5.753,2.583,0,1.013.836,1.505,2.128,1.505A5.831,5.831,0,0,0,2019.311,492.4Z" transform="translate(-1989.922 -476.566)" fill="#fff"/>
        <path id="Caminho_731" data-name="Caminho 731" d="M2045.066,481.383h3.442l.33,1.94h.107a3.5,3.5,0,0,1,3.338-2.321c1.334,0,2.312.889,2.68,2.575A3.616,3.616,0,0,1,2058.37,481c2.2,0,3.447,1.935,3.447,5.085V497.14h-4.343V486.415c0-.977-.228-1.44-.83-1.44-.585,0-.989.5-1.416,1.535v10.63h-3.572V486.415c0-.977-.279-1.44-.88-1.44-.564,0-.957.5-1.366,1.535v10.63h-4.343Z" transform="translate(-1989.335 -476.566)" fill="#fff"/>
        <path id="Caminho_732" data-name="Caminho 732" d="M2064.032,489.252a7.949,7.949,0,0,1,8.021-8.25c4.756,0,7.258,3.28,7.258,7.562a13.75,13.75,0,0,1-.191,2.093h-11.7v-3.132h8.6l-.72.89c0-2.529-1.076-3.858-3.1-3.858-2.258,0-3.74,1.563-3.74,4.7,0,3.27,1.74,4.706,4.739,4.706a8.339,8.339,0,0,0,3.971-1.094l1.516,2.814a11.605,11.605,0,0,1-6.113,1.843C2067.771,497.521,2064.032,494.489,2064.032,489.252Z" transform="translate(-1989.025 -476.566)" fill="#fff"/>
        <path id="Caminho_733" data-name="Caminho 733" d="M1990.385,526.867c0-5.156,3.24-8.268,6.59-8.268a5.036,5.036,0,0,1,3.888,1.694h.108l-.214-2.437v-5.367h4.576v22.248H2001.6l-.329-1.62h-.117a6.366,6.366,0,0,1-4.269,2C1992.95,535.118,1990.385,532.012,1990.385,526.867Zm10.371,2.962v-6.357a3.592,3.592,0,0,0-2.58-1.045c-1.669,0-3.109,1.387-3.109,4.385,0,3.089,1.118,4.478,2.987,4.478A3.167,3.167,0,0,0,2000.756,529.829Z" transform="translate(-1990.23 -476.05)" fill="#fff"/>
        <path id="Caminho_734" data-name="Caminho 734" d="M2008.98,526.751A7.949,7.949,0,0,1,2017,518.5c4.756,0,7.259,3.28,7.259,7.562a13.63,13.63,0,0,1-.192,2.093h-11.7v-3.132h8.6l-.72.89c0-2.529-1.075-3.859-3.1-3.859-2.259,0-3.74,1.564-3.74,4.7,0,3.27,1.741,4.706,4.739,4.706a8.34,8.34,0,0,0,3.971-1.094l1.515,2.814a11.6,11.6,0,0,1-6.111,1.843C2012.719,535.02,2008.98,531.988,2008.98,526.751Z" transform="translate(-1989.925 -475.952)" fill="#fff"/>
        <path id="Caminho_735" data-name="Caminho 735" d="M2026.6,518.876h4.592l2.427,7.429c.5,1.578.926,3.194,1.387,4.848h.124c.46-1.654.869-3.27,1.378-4.848l2.427-7.429h4.37l-5.65,15.757h-5.245Z" transform="translate(-1989.637 -475.946)" fill="#fff"/>
        <path id="Caminho_736" data-name="Caminho 736" d="M2045.682,526.751a7.948,7.948,0,0,1,8.02-8.25c4.755,0,7.259,3.28,7.259,7.562a13.63,13.63,0,0,1-.192,2.093h-11.7v-3.132h8.6l-.72.89c0-2.529-1.075-3.859-3.1-3.859-2.259,0-3.741,1.564-3.741,4.7,0,3.27,1.741,4.706,4.739,4.706a8.336,8.336,0,0,0,3.971-1.094l1.516,2.814a11.609,11.609,0,0,1-6.112,1.843C2049.42,535.02,2045.682,531.988,2045.682,526.751Z" transform="translate(-1989.325 -475.952)" fill="#fff"/>
        <path id="Caminho_737" data-name="Caminho 737" d="M2064.554,518.882h3.728l.329,2.1h.124a7.412,7.412,0,0,1,5.329-2.481c3.484,0,5.02,2.434,5.02,6.408v9.73h-4.576V525.51c0-2.1-.59-3.027-2.261-3.027a4.255,4.255,0,0,0-3.117,1.64v10.515h-4.575Z" transform="translate(-1989.016 -475.952)" fill="#fff"/>
        <path id="Caminho_738" data-name="Caminho 738" d="M2082.138,526.867c0-5.156,3.24-8.268,6.59-8.268a5.037,5.037,0,0,1,3.887,1.694h.108l-.214-2.437v-5.367h4.576v22.248h-3.728l-.329-1.62h-.117a6.367,6.367,0,0,1-4.269,2C2084.7,535.118,2082.138,532.012,2082.138,526.867Zm10.371,2.962v-6.357a3.592,3.592,0,0,0-2.58-1.045c-1.669,0-3.109,1.387-3.109,4.385,0,3.089,1.118,4.478,2.987,4.478A3.167,3.167,0,0,0,2092.509,529.829Z" transform="translate(-1988.728 -476.05)" fill="#fff"/>
        <path id="Caminho_739" data-name="Caminho 739" d="M2100.488,526.769c0-5.245,3.795-8.268,7.864-8.268s7.861,3.023,7.861,8.268a7.872,7.872,0,1,1-15.725,0Zm11.044,0c0-2.733-1.075-4.5-3.18-4.5s-3.18,1.762-3.18,4.5,1.073,4.478,3.18,4.478S2111.532,529.492,2111.532,526.769Z" transform="translate(-1988.428 -475.952)" fill="#fff"/>
        <path id="Caminho_740" data-name="Caminho 740" d="M1990.232,577.419l1.332-3.344a7.385,7.385,0,0,0,3.136.744c2.2,0,2.872-1.03,2.872-3.313V560.17h-6.207v-3.664h10.783v14.808c0,3.848-1.573,7.176-7.171,7.176A10.8,10.8,0,0,1,1990.232,577.419Zm6.383-26.23a3.04,3.04,0,0,1,6.075,0,3.043,3.043,0,0,1-6.075,0Z" transform="translate(-1990.232 -475.465)" fill="#fff"/>
        <path id="Caminho_741" data-name="Caminho 741" d="M2008.735,564.267c0-5.245,3.8-8.268,7.864-8.268s7.862,3.023,7.862,8.268a7.872,7.872,0,1,1-15.725,0Zm11.044,0c0-2.733-1.075-4.5-3.18-4.5s-3.18,1.762-3.18,4.5,1.073,4.478,3.18,4.478S2019.779,566.99,2019.779,564.267Z" transform="translate(-1989.929 -475.338)" fill="#fff"/>
        <path id="Caminho_742" data-name="Caminho 742" d="M2026.6,556.374h4.592l2.427,7.429c.5,1.578.926,3.194,1.387,4.848h.124c.46-1.654.869-3.27,1.378-4.848l2.427-7.429h4.37l-5.65,15.757h-5.245Z" transform="translate(-1989.637 -475.332)" fill="#fff"/>
        <path id="Caminho_743" data-name="Caminho 743" d="M2045.682,564.249a7.948,7.948,0,0,1,8.02-8.25c4.755,0,7.259,3.28,7.259,7.562a13.63,13.63,0,0,1-.192,2.093h-11.7v-3.132h8.6l-.72.89c0-2.529-1.075-3.859-3.1-3.859-2.259,0-3.741,1.564-3.741,4.7,0,3.27,1.741,4.706,4.739,4.706a8.336,8.336,0,0,0,3.971-1.094l1.516,2.814a11.609,11.609,0,0,1-6.112,1.843C2049.42,572.518,2045.682,569.487,2045.682,564.249Z" transform="translate(-1989.325 -475.338)" fill="#fff"/>
        <path id="Caminho_744" data-name="Caminho 744" d="M2063.417,556.38h3.442l.329,1.94h.106a3.5,3.5,0,0,1,3.339-2.321c1.334,0,2.312.889,2.679,2.575a3.616,3.616,0,0,1,3.409-2.575c2.2,0,3.445,1.935,3.445,5.085v11.053h-4.342V561.412c0-.977-.228-1.44-.83-1.44-.587,0-.989.5-1.416,1.535v10.63h-3.573V561.412c0-.977-.278-1.44-.88-1.44-.563,0-.955.5-1.366,1.535v10.63h-4.342Z" transform="translate(-1989.035 -475.338)" fill="#fff"/>
        <path id="Caminho_745" data-name="Caminho 745" d="M2086.816,569.367a3.108,3.108,0,1,1,6.215,0,3.11,3.11,0,1,1-6.215,0Zm.976-14.2-.151-4.224h4.567l-.152,4.224-.633,8.945h-3Z" transform="translate(-1988.652 -475.421)" fill="#fff"/>
      </g>
      <g id="Grupo_60" data-name="Grupo 60" transform="translate(2154.868 481.734)">
        <g id="Grupo_59" data-name="Grupo 59">
          <path id="Caminho_746" data-name="Caminho 746" d="M2201.245,506.042a8.13,8.13,0,0,0-4.792,1.579,8.718,8.718,0,0,0-8.136-6.252,8.121,8.121,0,0,0-4.792,1.579,8.719,8.719,0,0,0-8.136-6.253,8.036,8.036,0,0,0-4.309,1.257V482.678c0-5.155-3.866-9.346-8.62-9.346s-8.619,4.191-8.619,9.346v54.632l-11.847-6.425a12.169,12.169,0,0,0-5.779-1.477c-4.542,0-8.232,4-8.232,8.953a9.256,9.256,0,0,0,2.414,6.314l27.865,30.215a31.886,31.886,0,0,0,23.591,10.594c15.446,0,28.012-13.626,28.012-30.375V515.388C2209.864,510.233,2206,506.042,2201.245,506.042Zm4.309,49.066c0,14.173-10.635,25.7-23.707,25.7a27.735,27.735,0,0,1-20.535-9.23l-27.869-30.214a4.416,4.416,0,0,1-1.15-3.033,4.1,4.1,0,0,1,3.921-4.253,8.122,8.122,0,0,1,3.853.986l14.967,8.113a2.011,2.011,0,0,0,2.094-.1,2.389,2.389,0,0,0,1.021-1.987V482.678a4.323,4.323,0,1,1,8.619,0V527.07a2.162,2.162,0,1,0,4.311,0V506.042a4.323,4.323,0,1,1,8.619,0V527.07a2.162,2.162,0,1,0,4.309,0V510.715a4.324,4.324,0,1,1,8.619,0V527.07a2.162,2.162,0,1,0,4.309,0V515.388a4.323,4.323,0,1,1,8.619,0Z" transform="translate(-2127.983 -473.331)" fill="#fff"/>
        </g>
      </g>
      <path id="Caminho_747" data-name="Caminho 747" d="M2062.846,968.509" transform="translate(25.819 16.506)" fill="none" stroke="#000100" stroke-miterlimit="10" stroke-width="0.082"/>
    </g>
  </g>
  <rect id="Retângulo_16" data-name="Retângulo 16" width="1439.251" height="48.784" transform="translate(0.424 851.005)" fill="#ef5a78"/>
</svg>
